<svg xmlns="http://www.w3.org/2000/svg" version="1.1" viewBox="0 0 3000 2400" width="500" height="500">
<defs/><!--ITEM: Illustration component 1--><g transform="translate(66.0 531.0) rotate(0.0 984.0 511.5) translate(0.0 263.111973353813) scale(3.0464396284829722 3.047763186119122)"><svg width="645.015243902439" height="249.3264667370015" viewBox="0.0 86.3295332629985 645.015243902439 249.3264667370015"><g>
	<path d="M457.3,21.939c0,0-23.2,0-41.4,0c-2.5,0-4.9,1-6.7,2.8c-1.8,1.8-2.8,4.2-2.8,6.7l0,0c0,2.5,1,4.9,2.8,6.7   c1.8,1.8,4.2,2.8,6.7,2.8c0,0,23.2,0,41.4,0c2.5,0,4.9-1,6.7-2.8s2.8-4.2,2.8-6.7l0,0c0-2.5-1-4.9-2.8-6.7   S459.8,21.939,457.3,21.939z" style="fill:#00e6b3;"/>
	<path d="M340.8,268.439c0,0,16.5,0,29.3,0c1.8,0,3.5,0.7,4.7,2c1.3,1.3,2,3,2,4.7l0,0c0,1.8-0.7,3.5-2,4.7   c-1.3,1.3-3,2-4.7,2c0,0-16.5,0-29.3,0c-1.8,0-3.5-0.7-4.7-2c-1.3-1.3-2-3-2-4.7l0,0c0-1.8,0.7-3.5,2-4.7   C337.3,269.139,339,268.439,340.8,268.439z" style="fill:#00e6b3;"/>
	<path d="M49.4,92.239c0,0,16.5,0,29.3,0c1.8,0,3.5,0.7,4.7,2c1.3,1.3,2,3,2,4.7l0,0c0,1.8-0.7,3.5-2,4.7   c-1.3,1.3-3,2-4.7,2c0,0-16.5,0-29.3,0c-1.8,0-3.5-0.7-4.7-2c-1.3-1.3-2-3-2-4.7l0,0c0-1.8,0.7-3.5,2-4.7   C45.9,92.939,47.6,92.239,49.4,92.239z" style="fill:#00e6b3;"/>
	<path d="M533.4,281.439c0,0,14.5,0,38.8,0c3.3,0,6.6,1.3,8.9,3.7c2.4,2.4,3.7,5.6,3.7,8.9l0,0c0,3.3-1.3,6.6-3.7,8.9   c-2.4,2.4-5.6,3.7-8.9,3.7c0,0-14.5,0-38.8,0c-3.3,0-6.6-1.3-8.9-3.7c-2.4-2.4-3.7-5.6-3.7-8.9l0,0c0-3.3,1.3-6.6,3.7-8.9   C526.8,282.739,530,281.439,533.4,281.439z" style="fill:#00e6b3;"/>
	<circle cx="385" cy="8.739" r="7.2" style="fill:#00e6b3;"/>
	<circle cx="25.6" cy="225.939" r="7.2" style="fill:#00e6b3;"/>
	<circle cx="614" cy="315.839" r="7.2" style="fill:#00e6b3;"/>
	<circle cx="636.7" cy="230.639" r="9.3" style="fill:#00e6b3;"/>
	<circle cx="95.4" cy="74.739" r="9.3" style="fill:#00e6b3;"/>
	<ellipse cx="421.415" cy="305.636" rx="14" ry="14" style="fill:#00e6b3;"/>
	<path d="M622.2,141.339c-7-6.9-16.4-10.8-26.2-10.8h-39.9c-1.5,0-2.9-0.5-4-1.6c-1-1.1-1.6-2.5-1.6-4s0.5-2.9,1.6-4   c1.1-1,2.5-1.6,4-1.6h27.846c2.365,0,4.699-0.82,6.407-2.456c1.872-1.792,2.827-4.17,2.741-6.762   c-0.07-2.126-0.917-4.195-2.369-5.749c-1.729-1.85-4.018-2.833-6.525-2.833h-38.7c-2.6,0-5.1-1-7-2.9c-1.9-1.9-2.9-4.4-2.9-7   c0-2.6,1-5.1,2.9-7c1.9-1.9,4.4-2.9,7-2.9h12.2c3.8,0,7.5-1.5,10.2-4.2c2.7-2.7,4.2-6.4,4.2-10.2c0-3.8-1.5-7.5-4.2-10.2   s-6.4-4.2-10.2-4.2H272.9c0,0,0.008-0.003,0.009-0.003c-0.022,0-0.043,0.003-0.064,0.003c-9.027,0-16.344-7.318-16.344-16.344   c0-8.968,7.222-16.249,16.167-16.344c5.384-0.057,10.008-4.209,10.288-9.585C283.259,4.828,278.615,0,272.844,0h-133.17   c-5.981,0-10.83,4.849-10.83,10.83s4.849,10.83,10.83,10.83h6.253c1.2,0,2.5,0.5,3.4,1.4c0.9,0.9,1.4,2.1,1.4,3.4   c0,1.2-0.5,2.5-1.4,3.4c-0.9,0.9-2.1,1.4-3.4,1.4h-14.017c-10.803,0-20.003,8.401-20.387,19.197   c-0.402,11.334,8.667,20.648,19.91,20.648c0.003,0,0.005,0,0.008,0c-0.005,0.021-0.008,0.034-0.008,0.034H211.3   c1.2,0,2.5,0.5,3.4,1.4c0.9,0.9,1.4,2.1,1.4,3.4c0,1.2-0.5,2.5-1.4,3.4c-0.9,0.9-2.1,1.4-3.4,1.4h-43.6c-3.7,0-7.2,1.5-9.8,4.1   c-2.6,2.6-4.1,6.1-4.1,9.8s1.5,7.2,4.1,9.8s6.1,4.1,9.8,4.1h4.6v0.1h25.5c1.5,0,2.9,0.5,4,1.6c1,1.1,1.6,2.5,1.6,4s-0.5,2.9-1.6,4   c-1.1,1-2.5,1.6-4,1.6h-90.7c-3,0-5.9,1.2-8.1,3.4c-2.2,2.1-3.4,5.1-3.4,8.1s1.2,5.9,3.4,8.1c2.1,2.2,5.1,3.4,8.1,3.4H125   c2.6,0,5.1,1,7,2.9c1.9,1.9,2.9,4.4,2.9,7c0,2.6-1,5.1-2.9,7c-1.9,1.9-4.4,2.9-7,2.9H22.1c-5.8,0-11.5,2.4-15.6,6.5   c-4.2,4.1-6.5,9.7-6.5,15.6c0,5.8,2.4,11.5,6.5,15.6c4.1,4.2,9.7,6.5,15.6,6.5h73.5c4,0,7.9,1.6,10.7,4.4c2.8,2.9,4.4,6.7,4.4,10.7   s-1.6,7.9-4.4,10.7c-2.9,2.8-6.7,4.4-10.7,4.4H78.5c-2.7,0.2-5.3,1.4-7.2,3.3c-2.2,2.1-3.4,5.1-3.4,8.1s1.2,5.9,3.4,8.1   c2.1,2.1,4.9,3.3,7.8,3.4l16.1-0.106c11.767,0,21.307,9.539,21.307,21.306c0,11.767-9.54,21.306-21.307,21.306   c0,0-63.06,0-64.855,0c-9.171,0-16.605,7.435-16.605,16.605c0,9.171,7.434,16.605,16.605,16.605c5.273,0,279.403,0,279.403,0   s0,0,0.001,0c7.843,0,14.2-6.358,14.2-14.2c0-7.843-6.357-14.2-14.2-14.2h-24.833c-14.479,0-26.216-11.737-26.216-26.216   s11.737-26.216,26.216-26.216c0.214,0,0.425,0.011,0.637,0.016c11.328,0,172.234,0,220.947,0c0.3,0,0.6,0,0.9,0h37.2h20.1   c4,0,7.8-1.6,10.6-4.4c2.8-2.8,4.4-6.6,4.4-10.6s-1.6-7.8-4.4-10.6c-2.3-2.2-5.1-3.7-8.2-4.2h-31.4c-2.7,0-5.3-1.1-7.2-3   c-1.9-1.9-3-4.5-3-7.2c0-2.7,1.1-5.3,3-7.2c1.9-1.9,4.5-3,7.2-3l60.3-0.1c9.8,0,19.3-3.9,26.2-10.8c6.9-7,10.8-16.4,10.8-26.2   C633,157.739,629.1,148.239,622.2,141.339z" style="fill:#00e6b3;"/>
</g>
</svg></g><!--ITEM: Illustration component 2--><g transform="translate(426.0 498.0) rotate(0.0 985.5 775.5) translate(0.0 80.77373173783278) scale(4.870274277242402 4.8711852589328615)"><svg width="100" height="100" viewBox="0.0 16.581946167969807 403.4680365296804 301.8210538320302"><g>
	<g>
		<path d="M0,32.2v41.2h404.7V32.2c0-5.523-4.477-10-10-10H10C4.477,22.2,0,26.677,0,32.2z" style="fill:#142664;"/>
	</g>
	<circle cx="7.5" cy="7.4" r="7.4" style="fill:#FF2E93;"/>
	<circle cx="31.4" cy="7.4" r="7.4" style="fill:#142664;"/>
	<circle cx="55.4" cy="7.4" r="7.4" style="fill:#00E6B3;"/>
	<path d="M394.7,318.403H10c-5.523,0-10-4.477-10-10V73.4h404.7v235.003C404.7,313.926,400.223,318.403,394.7,318.403z" style="fill:#00E6B3;"/>
</g>
</svg></g><!--ITEM: Illustration component 3--><g transform="translate(411.0 117.0) rotate(0.0 1266.0 657.0) translate(426.76597420419165 0.0) scale(3.9195046439628483 3.9147222156016874)"><svg width="536.5473933649289" height="334.88966210045663" viewBox="108.88263006947386 0.0 536.5473933649289 334.88966210045663"><g>
	<path d="M457.3,21.939c0,0-23.2,0-41.4,0c-2.5,0-4.9,1-6.7,2.8c-1.8,1.8-2.8,4.2-2.8,6.7l0,0c0,2.5,1,4.9,2.8,6.7   c1.8,1.8,4.2,2.8,6.7,2.8c0,0,23.2,0,41.4,0c2.5,0,4.9-1,6.7-2.8s2.8-4.2,2.8-6.7l0,0c0-2.5-1-4.9-2.8-6.7   S459.8,21.939,457.3,21.939z" style="fill:#142664;"/>
	<path d="M340.8,268.439c0,0,16.5,0,29.3,0c1.8,0,3.5,0.7,4.7,2c1.3,1.3,2,3,2,4.7l0,0c0,1.8-0.7,3.5-2,4.7   c-1.3,1.3-3,2-4.7,2c0,0-16.5,0-29.3,0c-1.8,0-3.5-0.7-4.7-2c-1.3-1.3-2-3-2-4.7l0,0c0-1.8,0.7-3.5,2-4.7   C337.3,269.139,339,268.439,340.8,268.439z" style="fill:#142664;"/>
	<path d="M49.4,92.239c0,0,16.5,0,29.3,0c1.8,0,3.5,0.7,4.7,2c1.3,1.3,2,3,2,4.7l0,0c0,1.8-0.7,3.5-2,4.7   c-1.3,1.3-3,2-4.7,2c0,0-16.5,0-29.3,0c-1.8,0-3.5-0.7-4.7-2c-1.3-1.3-2-3-2-4.7l0,0c0-1.8,0.7-3.5,2-4.7   C45.9,92.939,47.6,92.239,49.4,92.239z" style="fill:#142664;"/>
	<path d="M533.4,281.439c0,0,14.5,0,38.8,0c3.3,0,6.6,1.3,8.9,3.7c2.4,2.4,3.7,5.6,3.7,8.9l0,0c0,3.3-1.3,6.6-3.7,8.9   c-2.4,2.4-5.6,3.7-8.9,3.7c0,0-14.5,0-38.8,0c-3.3,0-6.6-1.3-8.9-3.7c-2.4-2.4-3.7-5.6-3.7-8.9l0,0c0-3.3,1.3-6.6,3.7-8.9   C526.8,282.739,530,281.439,533.4,281.439z" style="fill:#142664;"/>
	<circle cx="385" cy="8.739" r="7.2" style="fill:#142664;"/>
	<circle cx="25.6" cy="225.939" r="7.2" style="fill:#142664;"/>
	<circle cx="614" cy="315.839" r="7.2" style="fill:#142664;"/>
	<circle cx="636.7" cy="230.639" r="9.3" style="fill:#142664;"/>
	<circle cx="95.4" cy="74.739" r="9.3" style="fill:#142664;"/>
	<ellipse cx="421.415" cy="305.636" rx="14" ry="14" style="fill:#142664;"/>
	<path d="M622.2,141.339c-7-6.9-16.4-10.8-26.2-10.8h-39.9c-1.5,0-2.9-0.5-4-1.6c-1-1.1-1.6-2.5-1.6-4s0.5-2.9,1.6-4   c1.1-1,2.5-1.6,4-1.6h27.846c2.365,0,4.699-0.82,6.407-2.456c1.872-1.792,2.827-4.17,2.741-6.762   c-0.07-2.126-0.917-4.195-2.369-5.749c-1.729-1.85-4.018-2.833-6.525-2.833h-38.7c-2.6,0-5.1-1-7-2.9c-1.9-1.9-2.9-4.4-2.9-7   c0-2.6,1-5.1,2.9-7c1.9-1.9,4.4-2.9,7-2.9h12.2c3.8,0,7.5-1.5,10.2-4.2c2.7-2.7,4.2-6.4,4.2-10.2c0-3.8-1.5-7.5-4.2-10.2   s-6.4-4.2-10.2-4.2H272.9c0,0,0.008-0.003,0.009-0.003c-0.022,0-0.043,0.003-0.064,0.003c-9.027,0-16.344-7.318-16.344-16.344   c0-8.968,7.222-16.249,16.167-16.344c5.384-0.057,10.008-4.209,10.288-9.585C283.259,4.828,278.615,0,272.844,0h-133.17   c-5.981,0-10.83,4.849-10.83,10.83s4.849,10.83,10.83,10.83h6.253c1.2,0,2.5,0.5,3.4,1.4c0.9,0.9,1.4,2.1,1.4,3.4   c0,1.2-0.5,2.5-1.4,3.4c-0.9,0.9-2.1,1.4-3.4,1.4h-14.017c-10.803,0-20.003,8.401-20.387,19.197   c-0.402,11.334,8.667,20.648,19.91,20.648c0.003,0,0.005,0,0.008,0c-0.005,0.021-0.008,0.034-0.008,0.034H211.3   c1.2,0,2.5,0.5,3.4,1.4c0.9,0.9,1.4,2.1,1.4,3.4c0,1.2-0.5,2.5-1.4,3.4c-0.9,0.9-2.1,1.4-3.4,1.4h-43.6c-3.7,0-7.2,1.5-9.8,4.1   c-2.6,2.6-4.1,6.1-4.1,9.8s1.5,7.2,4.1,9.8s6.1,4.1,9.8,4.1h4.6v0.1h25.5c1.5,0,2.9,0.5,4,1.6c1,1.1,1.6,2.5,1.6,4s-0.5,2.9-1.6,4   c-1.1,1-2.5,1.6-4,1.6h-90.7c-3,0-5.9,1.2-8.1,3.4c-2.2,2.1-3.4,5.1-3.4,8.1s1.2,5.9,3.4,8.1c2.1,2.2,5.1,3.4,8.1,3.4H125   c2.6,0,5.1,1,7,2.9c1.9,1.9,2.9,4.4,2.9,7c0,2.6-1,5.1-2.9,7c-1.9,1.9-4.4,2.9-7,2.9H22.1c-5.8,0-11.5,2.4-15.6,6.5   c-4.2,4.1-6.5,9.7-6.5,15.6c0,5.8,2.4,11.5,6.5,15.6c4.1,4.2,9.7,6.5,15.6,6.5h73.5c4,0,7.9,1.6,10.7,4.4c2.8,2.9,4.4,6.7,4.4,10.7   s-1.6,7.9-4.4,10.7c-2.9,2.8-6.7,4.4-10.7,4.4H78.5c-2.7,0.2-5.3,1.4-7.2,3.3c-2.2,2.1-3.4,5.1-3.4,8.1s1.2,5.9,3.4,8.1   c2.1,2.1,4.9,3.3,7.8,3.4l16.1-0.106c11.767,0,21.307,9.539,21.307,21.306c0,11.767-9.54,21.306-21.307,21.306   c0,0-63.06,0-64.855,0c-9.171,0-16.605,7.435-16.605,16.605c0,9.171,7.434,16.605,16.605,16.605c5.273,0,279.403,0,279.403,0   s0,0,0.001,0c7.843,0,14.2-6.358,14.2-14.2c0-7.843-6.357-14.2-14.2-14.2h-24.833c-14.479,0-26.216-11.737-26.216-26.216   s11.737-26.216,26.216-26.216c0.214,0,0.425,0.011,0.637,0.016c11.328,0,172.234,0,220.947,0c0.3,0,0.6,0,0.9,0h37.2h20.1   c4,0,7.8-1.6,10.6-4.4c2.8-2.8,4.4-6.6,4.4-10.6s-1.6-7.8-4.4-10.6c-2.3-2.2-5.1-3.7-8.2-4.2h-31.4c-2.7,0-5.3-1.1-7.2-3   c-1.9-1.9-3-4.5-3-7.2c0-2.7,1.1-5.3,3-7.2c1.9-1.9,4.5-3,7.2-3l60.3-0.1c9.8,0,19.3-3.9,26.2-10.8c6.9-7,10.8-16.4,10.8-26.2   C633,157.739,629.1,148.239,622.2,141.339z" style="fill:#142664;"/>
</g>
</svg></g><!--ITEM: Illustration component 4--><g transform="translate(426.0 261.0) rotate(0.0 985.5 775.5) translate(0.0 80.77373173783278) scale(4.870274277242402 4.8711852589328615)"><svg width="403.4680365296804" height="301.8210538320302" viewBox="0.0 16.581946167969807 403.4680365296804 301.8210538320302"><g>
	<g>
		<path d="M0,32.2v41.2h404.7V32.2c0-5.523-4.477-10-10-10H10C4.477,22.2,0,26.677,0,32.2z" style="fill:#142664;"/>
	</g>
	<circle cx="7.5" cy="7.4" r="7.4" style="fill:#FF2E93;"/>
	<circle cx="31.4" cy="7.4" r="7.4" style="fill:#142664;"/>
	<circle cx="55.4" cy="7.4" r="7.4" style="fill:#00E6B3;"/>
	<path d="M394.7,318.403H10c-5.523,0-10-4.477-10-10V73.4h404.7v235.003C404.7,313.926,400.223,318.403,394.7,318.403z" style="fill:#00E6B3;"/>
</g>
</svg></g><!--ITEM: Illustration component 5--><g transform="translate(567.0 939.0) rotate(21.07402064501109 315.0 13.5)  scale(7.0 6.136363636363636)"><svg width="90.0" height="4.4" viewBox="0.0 0.0 90.0 4.4"><path d="M88.4,0.6c0,0-9.2-0.2-21.7-0.4C60.1,0.1,52.5,0,45,0c-4.4,0-8.8,0-13,0.1C15.4,0.3,1.6,0.6,1.6,0.6  C0.7,0.6,0,1.3,0,2.2s0.7,1.6,1.6,1.6c0,0,13.8,0.3,30.4,0.5c4.2,0,8.6,0.1,13,0.1c7.5,0,15.1-0.1,21.7-0.2  C79.2,4,88.4,3.8,88.4,3.8c0.9,0,1.6-0.7,1.6-1.6S89.3,0.6,88.4,0.6z" style="fill:#ff2e93;"/>
</svg></g><!--ITEM: Illustration component 6--><g transform="translate(1224.0 699.0) rotate(0.0 373.5 373.5)  scale(2.9099096642501823 2.9102157533446054)"><svg width="256.709" height="256.682" viewBox="0.0 0.0 256.709 256.682"><g>
	<g>
		<path style="fill:#FF2E93;" d="M250.054,155.742c0.035-18.273-11.416-33.622-13.619-36.576    c-8.53-11.435-26.925-28.414-42.383-24.077c-5.366,1.506-10.248,6.62-20.011,16.848c-11.547,12.097-12.297,16.652-17.673,17.448    c-10.625,1.572-15.378-15.087-26.638-14.805c-11.409,0.286-25.098,17.856-22.446,31.466c3.779,19.393,38.489,19.221,40.355,35.967    c1.724,15.472-26.82,25.353-24.097,45.505c0.163,1.208,1.066,7.888,5.584,11.743C150.547,257.541,249.951,209.487,250.054,155.742    z"/>
	</g>
	<g>
		<path style="fill:#FF2E93;" d="M18.516,77.031c7.231-4.213,18.948-3.253,24.524,2.918c7.956,8.805-3.043,21.079,4.137,39.913    c4.892,12.832,11.321,10.607,13.183,20.413c3.043,16.03-7.603,13.998-9.994,39.093c-1.034,10.85,9.198,23.344-0.04,26.866    c-1.93,0.736-11.662-9.015-17.89-23.802c-14.232-33.789-22.603-48.374-23.669-64.253C7.87,104.82,6.476,84.046,18.516,77.031z"/>
	</g>
	<g>
		<path style="fill:#FF2E93;" d="M118.396,89.761c-0.249,8.867,5.677,14.727,6.339,15.361c1.021,0.977,8.053,7.507,15.211,5.664    c5.828-1.5,5.981-7.068,16.466-20.224c4.776-5.992,7.252-9.04,11.595-11.591c1.372-0.806,13.048-7.483,20.3-2.798    c4.904,3.168,2.629,8.201,7.591,12.658c1.366,1.227,5.211,4.144,22.561,3.025c18.091-1.166,22.769-4.909,25.932-1.697    c4.757,4.831-3.234,15.923,3.555,26.694c0.484,0.767,2.401,4.607,3.651,4.283c2.265-0.586,0.697-14.344-0.21-20.017    c-5.099-31.896-28.477-53.246-31.37-55.819c-9.691-8.619-25.398-22.587-42.329-18.956c-2.122,0.455-12.807,3.019-15.266,10.454    c-3.095,9.357,9.473,18.461,5.992,24.047c-2.139,3.433-7.449,0.895-20.595,3.619c-6.722,1.393-13.155,2.725-19.144,7.573    C126.006,74.198,118.666,80.138,118.396,89.761z"/>
	</g>
	<g>
		<path style="fill:#FF2E93;" d="M29.347,62.124c5.105,0.283,10.261,3.282,13.084,7.344c3.672,5.281,2.098,10.488,3.857,10.859    c1.997,0.421,3.998-6.297,9.539-14.523C60.102,59.46,66.313,50.24,73.6,50.376c5.059,0.094,5.534,4.602,11.66,6.335    c8.561,2.421,19.179-3.117,24.923-10.577c6.629-8.612,9.169-22.911,2.611-29.803c-6.846-7.195-20.563-3.119-32.327,0.377    c-19.728,5.863-31.98,17.156-43.004,27.318C28.551,52.24,21.19,60.912,22.553,62.658C23.214,63.505,25.281,61.899,29.347,62.124z"/>
	</g>
	<g>
		<path style="fill:#142664;" d="M256.254,117.75c-0.12-1.391-0.259-2.788-0.423-4.175c-2.302-19.579-9.094-38.39-19.729-54.878    c-0.73-1.144-1.486-2.277-2.267-3.399c-11.06-16.035-25.855-29.694-43.766-39.488c-2.061-1.14-4.171-2.214-6.323-3.24    c-1.013-0.482-2.039-0.958-3.068-1.425c-0.213-0.088-0.422-0.184-0.634-0.272c-0.236-0.108-0.468-0.203-0.695-0.308    c-0.718-0.306-1.426-0.609-2.147-0.905c-0.333-0.137-0.675-0.278-1.012-0.406c-1.335-0.539-2.669-1.055-4.014-1.544    c-0.557-0.196-1.101-0.399-1.662-0.586c-1.344-0.466-2.695-0.915-4.044-1.34c-1.647-0.516-3.301-0.991-4.957-1.434    c-16.7-4.483-33.737-5.417-50.183-3.188c-1.353,0.189-2.702,0.391-4.036,0.61C86.253,5.31,66.32,14.042,49.449,27.158    c-1.052,0.822-2.098,1.656-3.134,2.517C31.351,42.072,19.007,58.036,10.745,76.955c-0.369,0.843-0.732,1.7-1.082,2.55    c-0.312,0.758-0.611,1.511-0.914,2.273c-8.125,20.847-10.408,42.605-7.607,63.417c0.308,2.3,0.673,4.592,1.113,6.86    c2.933,15.525,8.719,30.395,17.003,43.818c3.615,5.879,7.725,11.474,12.28,16.722c8.675,10.005,18.995,18.773,30.767,25.823    l0.009,0.004c4.573,2.735,9.36,5.214,14.36,7.412c0.941,0.42,1.88,0.817,2.833,1.209c0.647,0.266,1.289,0.52,1.94,0.776    c5.222,2.052,10.507,3.74,15.82,5.072c2.284,0.572,4.572,1.082,6.869,1.519c5.021,0.964,10.047,1.627,15.072,1.975    c-0.232,0.012,6.211,0.336,11.744,0.291c0.013-0.005,0.013-0.005,0.022-0.002c4.692-0.103,9.347-0.458,13.957-1.069    c5.533-0.728,11.001-1.82,16.371-3.254c12.825-3.416,25.07-8.812,36.263-15.961c1.966-1.257,3.897-2.559,5.784-3.914    c16.609-11.926,30.546-27.925,40.085-47.293c0.707-1.428,1.387-2.869,2.045-4.338c0.54-1.206,1.06-2.419,1.566-3.649    C255.057,157.733,257.916,137.412,256.254,117.75z M251.936,114.762c-5.908,1.613-12.114,2.476-18.498,2.725    c-0.883-21.688-5.738-40.264-12.818-55.905c4.273-0.058,8.128-0.57,11.595-1.532C242.958,76.431,249.753,95.209,251.936,114.762z     M134.505,32.609c7.172,4.487,15.207,8.4,23.525,11.995c-0.717,1.295-1.447,2.649-2.209,4.055    c-6.901,12.775-14.188,27.327-21.537,42.978c-15.658-7.017-29.421-14.433-41.294-22.239c9.108-10.385,19.13-19.919,29.791-28.27    C126.788,37.986,130.705,35.142,134.505,32.609z M161.729,46.18c0.764,0.325,1.532,0.641,2.308,0.96    c8.12,3.342,15.613,6.101,22.526,8.276c0.037,0.383,0.064,0.762,0.097,1.154c0.974,11.744,1.393,30.592-2.027,53.851    c-13.644-3.896-26.798-8.877-38.422-13.661c-2.811-1.157-5.565-2.322-8.261-3.497c6.795-14.462,13.533-27.996,19.955-40.028    C159.234,50.744,160.514,48.395,161.729,46.18z M190.279,52.35c-1.373-13.401-4.051-25.393-7.434-34.225    c11.276,9.334,22.585,22.293,31.252,39.15C207.188,56.67,199.256,55.028,190.279,52.35z M178.801,18.808    c2.977,7.454,5.771,18.271,7.32,32.242c-6.361-2.044-13.21-4.582-20.562-7.608c-0.62-0.255-1.249-0.514-1.864-0.778    C170.57,30.451,175.509,23.022,178.801,18.808z M190.68,56.657c9.664,2.82,18.131,4.423,25.492,4.825    c7.305,15.54,12.354,34.173,13.262,56.088c-13.339,0.014-27.321-2.431-40.929-6.074C191.327,92.792,192.094,74.216,190.68,56.657z     M176.8,14.945c-3.637,4.267-8.929,12.081-16.816,26.148c-7.668-3.307-15.082-6.867-21.772-10.896    C154.84,19.642,168.754,14.922,176.8,14.945z M132.599,95.257c-7.577,16.282-15.185,33.664-22.488,51.411    c-0.643,1.562-1.275,3.098-1.886,4.609c-18.049-7.698-35.689-16.072-51.276-26.099c0.769-1.738,1.587-3.489,2.438-5.268    c8.074-16.78,18.635-32.904,30.965-47.467C102.502,80.47,116.585,88.082,132.599,95.257z M113.81,148.19    c7.261-17.644,14.866-35.018,22.443-51.3c2.76,1.201,5.569,2.389,8.436,3.569c14.537,5.983,27.489,10.588,39.32,13.976    c-2.549,15.626-6.841,33.097-13.825,51.645c-0.942,2.499-1.902,4.938-2.886,7.301c-16.103-4.724-32.041-10.904-48.02-17.481    c-2.46-1.012-4.916-2.034-7.368-3.065C112.528,151.306,113.163,149.762,113.81,148.19z M173.929,167.492    c6.361-16.901,11.053-34.478,13.947-51.995c9.272,2.486,17.859,4.192,25.994,5.183c5.478,0.665,10.705,0.999,15.682,0.993    c0.243,14.017-1.194,29.333-4.774,45.994c-1.07,4.966-2.609,9.859-4.554,14.639c-16.673-0.373-32.952-3.331-49.047-7.815    C172.11,172.227,173.028,169.889,173.929,167.492z M134.554,27.892c-5.159-3.388-9.785-7.098-13.64-11.236    c15.985-3.998,31.862-5.293,46.432-4.357C158.275,14.632,146.851,19.9,134.554,27.892z M130.937,30.296    c-13.498,9.227-27.875,21.618-41.271,36.879c-10.409-7.106-19.249-14.529-26.532-22.241c16.56-13.148,34.98-21.96,53.403-27.128    C120.544,22.44,125.443,26.565,130.937,30.296z M87.051,70.218c-11.721,13.819-22.57,29.879-31.265,47.96    c-0.774,1.617-1.514,3.205-2.228,4.782c-11.819-7.935-22.338-16.903-30.812-27.344c2.296-5.316,5.022-10.391,8.154-15.19    c8.506-13.023,18.4-23.95,29.141-32.971C67.469,55.369,76.478,62.958,87.051,70.218z M39.183,117.239    c4.07,3.276,8.342,6.375,12.779,9.336c-8.475,19.805-11.94,36.686-12.514,50.746c-8.941-6.286-17.454-12.979-25.389-19.975    c-2.158-20.375,0.24-40.128,6.997-57.624C26.232,105.854,32.269,111.68,39.183,117.239z M55.363,128.797    c15.899,10.188,33.638,18.612,51.34,26.179c-8.476,20.778-14.853,37.089-19.502,49.882c-15.198-6.979-29.989-15.391-43.832-24.819    C43.583,166.09,46.774,149.063,55.363,128.797z M110.387,156.535c2.461,1.035,4.917,2.056,7.368,3.065    c15.952,6.565,31.871,12.737,47.955,17.508c-8.721,20.007-18.716,34.915-28.279,45.934c-13.114-3.581-26.491-8.177-40.113-13.783    c-2.155-0.887-4.307-1.805-6.457-2.756C95.553,193.577,101.98,177.146,110.387,156.535z M169.599,178.222    c16.039,4.513,32.27,7.538,48.901,8.089c-7.916,17.343-20.857,32.995-34.882,45.239c-13.571-1.237-27.489-3.679-41.729-7.333    C151.364,212.966,161.065,198.013,169.599,178.222z M229.802,56.504c-3.298,0.762-6.995,1.101-11.104,1.021    c-7.023-14.256-15.909-25.904-25.188-35.097C208.081,31.377,220.318,43.053,229.802,56.504z M160.299,8.165    c-13.404-0.196-27.362,1.348-40.78,4.682c-0.507,0.127-1.013,0.254-1.523,0.39c-2.019-2.582-3.736-5.322-5.107-8.244    C128.442,3.014,144.511,3.96,160.299,8.165z M108.749,5.593c1.342,3.126,3.053,6.036,5.057,8.786    c-16.066,4.645-35.189,12.877-53.456,27.494c-3.276-3.705-6.186-7.487-8.746-11.331C68.232,17.542,87.946,8.949,108.749,5.593z     M13.362,81.028c7.924-19.253,20.151-35.459,35.126-47.961c2.578,3.851,5.51,7.631,8.773,11.343    c-10.517,8.896-20.676,19.996-29.71,33.829c-2.866,4.389-5.399,8.992-7.593,13.799c-2.483-3.347-4.762-6.848-6.81-10.491    L13.362,81.028z M11.339,86.284c2.047,3.383,4.315,6.674,6.819,9.889c-7.112,17.36-9.997,36.956-8.464,57.247    c-1.279-1.176-2.535-2.352-3.779-3.534C2.235,129.165,3.77,107.304,11.339,86.284z M7.358,156.838    c0.962,0.893,1.942,1.772,2.925,2.642c0.549,4.789,1.359,9.599,2.422,14.427C10.531,168.363,8.737,162.66,7.358,156.838z     M22.843,194.073c-1.428-3.757-2.716-7.617-3.848-11.565c-1.826-6.363-3.204-12.737-4.148-19.063    c2.736,2.337,5.542,4.638,8.417,6.902c5.217,4.115,10.596,8.071,16.098,11.86l0.009,0.004c0.071,12.465,2.44,22.502,5.391,30.204    c1.957,5.098,4.441,9.862,7.369,14.203C40.363,217.481,30.511,206.42,22.843,194.073z M64.678,235.177    c-6.92-6.362-12.524-14.659-16.179-24.198c-2.585-6.753-4.703-15.399-5.075-26.031c13.606,9.06,27.918,17.059,42.417,23.686    c-5.832,16.405-8.577,26.543-9.152,32.827c-4.162-1.896-8.154-3.994-12.003-6.281C64.678,235.177,64.678,235.177,64.678,235.177z     M81.03,243.345l-0.49-0.202c0.122-2.924,0.982-7.825,3.403-16.021c1.391-4.694,3.232-10.272,5.571-16.848    c2.086,0.924,4.182,1.819,6.282,2.683c13.113,5.397,26.001,9.867,38.659,13.401c-12.738,13.768-24.387,20.739-30.826,23.875    C96.027,248.684,88.465,246.405,81.03,243.345z M110.084,251.365c7.712-4.341,18.048-11.691,28.873-23.78    c13.763,3.631,27.239,6.149,40.4,7.565c-6.482,5.269-13.102,9.791-19.478,13.406c-0.082,0.042-0.16,0.075-0.235,0.099    c-0.013,0.005-0.016,0.014-0.025,0.011C143.687,252.824,126.858,253.857,110.084,251.365z M175.181,243.487    c3.339-2.411,6.672-5.018,9.934-7.796c1.765,0.154,3.519,0.28,5.274,0.375C185.488,238.884,180.401,241.364,175.181,243.487z     M196.448,232.354c-2.369-0.077-4.75-0.203-7.139-0.364c13.769-12.566,26.077-28.208,33.578-45.592    c5.231,0.033,10.498-0.178,15.81-0.684C228.592,205.171,213.865,220.986,196.448,232.354z M224.542,182.352    c1.731-4.521,3.132-9.135,4.141-13.846c3.647-16.98,5.111-32.598,4.868-46.907c6.717-0.241,12.969-1.14,18.788-2.692    c1.459,18.789-1.342,38.182-8.992,56.77c-0.803,1.951-1.644,3.865-2.538,5.746C235.33,182.045,229.912,182.335,224.542,182.352z"/>
	</g>
</g>
</svg></g><!--ITEM: Illustration component 7--><g transform="translate(2046.0 729.0) rotate(0.0 103.5 103.5)  scale(3.1993817619783615 3.1993817619783615)"><svg width="64.7" height="64.7" viewBox="0.0 0.0 64.7 64.7"><g>
	<path d="M56.7,11l7.4-7.4c0.8-0.8,0.8-2.2,0-3c-0.8-0.8-2.2-0.8-3,0L53.7,8C48,3,40.6,0,32.4,0C14.5,0,0,14.5,0,32.4   C0,40.5,3,48,8,53.7l-7.4,7.4c-0.8,0.8-0.8,2.2,0,3c0.8,0.8,2.2,0.8,3,0l7.4-7.4c5.7,5,13.1,8,21.3,8c17.9,0,32.4-14.5,32.4-32.4   C64.7,24.2,61.7,16.7,56.7,11z M4.3,32.3c0-15.5,12.6-28.1,28.1-28.1c7,0,13.4,2.6,18.3,6.8L11.1,50.6C6.9,45.7,4.3,39.3,4.3,32.3z    M32.3,60.5c-7,0-13.4-2.6-18.3-6.8L53.7,14c4.2,5,6.8,11.4,6.7,18.4C60.4,47.9,47.8,60.5,32.3,60.5z" style="fill:#ffffff;"/>
</g>
</svg></g><!--ITEM: Illustration component 8--><g transform="translate(1170.0 1176.0) rotate(0.0 -153.0 51.0)  scale(-3.3009708737864076 3.2903225806451615)"><svg width="92.7" height="31.0" viewBox="0.0 0.0 92.7 31.0"><g>
	<path d="M2.9,5.8h86.9c1.6,0,2.9-1.3,2.9-2.9S91.4,0,89.8,0H2.9C1.3,0,0,1.3,0,2.9S1.3,5.8,2.9,5.8z" style="fill:#142664;"/>
	<path d="M2.9,18.4h34.9c1.6,0,2.9-1.3,2.9-2.9s-1.3-2.9-2.9-2.9H2.9c-1.6,0-2.9,1.3-2.9,2.9C0,17.1,1.3,18.4,2.9,18.4z   " style="fill:#142664;"/>
	<path d="M50,18.4h20c1.6,0,2.9-1.3,2.9-2.9s-1.3-2.9-2.9-2.9H50c-1.6,0-2.9,1.3-2.9,2.9C47.1,17.1,48.4,18.4,50,18.4z" style="fill:#142664;"/>
	<path d="M82.2,18.4h7.6c1.6,0,2.9-1.3,2.9-2.9s-1.3-2.9-2.9-2.9h-7.6c-1.6,0-2.9,1.3-2.9,2.9   C79.3,17.1,80.6,18.4,82.2,18.4z" style="fill:#142664;"/>
	<path d="M2.9,31h15.3c1.6,0,2.9-1.3,2.9-2.9s-1.3-2.9-2.9-2.9H2.9c-1.6,0-2.9,1.3-2.9,2.9S1.3,31,2.9,31z" style="fill:#142664;"/>
	<path d="M31.4,31h28.7c1.6,0,2.9-1.3,2.9-2.9s-1.3-2.9-2.9-2.9H31.4c-1.6,0-2.9,1.3-2.9,2.9S29.8,31,31.4,31z" style="fill:#142664;"/>
</g>
</svg></g><!--ITEM: Illustration component 9--><g transform="translate(495.0 1080.0) rotate(0.0 157.5 157.5)  scale(2.4764150943396226 2.4803149606299213)"><svg width="127.2" height="127.0" viewBox="0.0 0.0 127.2 127.0"><g>
	<path d="M80.5,2.2c26.9,7.4,46.7,32,46.7,61.3c0,35.1-28.5,63.5-63.5,63.5c-5.4,0-10.7-0.7-15.7-2l6-22.5   c3.1,0.8,6.4,1.2,9.8,1.2c22.2,0,40.3-18.1,40.3-40.3c0-18.5-12.5-34.1-29.4-38.8L80.5,2.2L80.5,2.2z" style="fill:#FF2E93;"/>
	<path d="M38.4,5.2C46.1,1.9,54.7,0,63.6,0c5.8,0,11.5,0.8,16.8,2.3l-6,22.5c-3.5-1-7.1-1.5-10.9-1.5   c-5.8,0-11.3,1.2-16.3,3.4L38.4,5.2L38.4,5.2z" style="fill:#142664;"/>
	<path d="M25.3,76.1c4.3,13.1,15.1,23.2,28.6,26.6L48,125.2c-21.5-5.5-38.7-21.9-45.1-43L25.3,76.1z" style="fill:#142664;"/>
	<path d="M38.4,5.2l8.9,21.4c-14.1,6.3-24,20.4-24,36.9c0,4.4,0.7,8.6,2,12.6l-22.5,6C1,76.2,0,70,0,63.5   C0.1,37.4,15.9,14.9,38.4,5.2z" style="fill:#ffffff;"/>
</g>
</svg></g><!--ITEM: Illustration component 10--><g transform="translate(2055.0 1017.0) rotate(0.0 96.0 55.5)  scale(4.093816631130064 4.036363636363636)"><svg width="46.9" height="27.5" viewBox="0.0 0.0 46.9 27.5"><g>
	<path d="M2.9,5.8h4.5c1.6,0,2.9-1.3,2.9-2.9S9,0,7.4,0H2.9C1.3,0,0,1.3,0,2.9S1.3,5.8,2.9,5.8z" style="fill:#142664;"/>
	<path d="M16,5.8h28c1.6,0,2.9-1.3,2.9-2.9S45.6,0,44,0H16c-1.6,0-2.9,1.3-2.9,2.9C13.2,4.5,14.4,5.8,16,5.8z" style="fill:#142664;"/>
	<path d="M2.9,16.7h21c1.6,0,2.9-1.3,2.9-2.9s-1.3-2.9-2.9-2.9h-21c-1.6,0-2.9,1.3-2.9,2.9C0,15.4,1.3,16.7,2.9,16.7z" style="fill:#142664;"/>
	<path d="M32.5,16.7H44c1.6,0,2.9-1.3,2.9-2.9s-1.3-2.9-2.9-2.9H32.5c-1.6,0-2.9,1.3-2.9,2.9   C29.7,15.4,31,16.7,32.5,16.7z" style="fill:#142664;"/>
	<path d="M2.9,27.5h29.5c1.6,0,2.9-1.3,2.9-2.9s-1.3-2.9-2.9-2.9H2.9C1.3,21.7,0,23,0,24.6S1.3,27.5,2.9,27.5z" style="fill:#142664;"/>
</g>
</svg></g><!--ITEM: Illustration component 11--><g transform="translate(1893.0 1989.0) rotate(-90.0000000000005 -133.5 -199.5)  scale(-4.033232628398792 -4.014084507042253)"><svg width="66.2" height="99.4" viewBox="0.0 0.0 66.2 99.4"><g>
	<g>
		<path d="M7.9,99.4c-0.6,0-1.2-0.2-1.7-0.7c-0.9-0.9-0.9-2.4,0-3.3l24.3-24.3V36c0-1.3,1.1-2.4,2.4-2.4    s2.4,1.1,2.4,2.4v36.1c0,0.6-0.2,1.2-0.7,1.7l-25,25C9.1,99.2,8.5,99.4,7.9,99.4z" style="fill:#ffffff;"/>
	</g>
	<path d="M66.2,5.4c0-3-2.4-5.4-5.4-5.4H5.4C2.4,0,0,2.4,0,5.4v31.4c0,3,2.4,5.4,5.4,5.4h55.4c3,0,5.4-2.4,5.4-5.4V5.4   L66.2,5.4z" style="fill:#ffffff;"/>
</g>
</svg></g><!--ITEM: Illustration component 12--><g transform="translate(663.0 1623.0) rotate(-180.0 211.5 -82.5)  scale(2.8125 -2.7777777777777777)"><svg width="150.4" height="59.4" viewBox="0.0 0.0 150.4 59.4"><path d="M93.3,32.6v20.3c0,1.7-0.7,3.4-1.9,4.6s-2.9,1.9-4.6,1.9c-17.2,0-63.2,0-80.3,0c-1.7,0-3.4-0.7-4.6-1.9  C0.7,56.3,0,54.6,0,52.9C0,41.5,0,18,0,6.5c0-1.7,0.7-3.4,1.9-4.6C3.1,0.7,4.8,0,6.5,0c17.2,0,63.2,0,80.3,0c1.7,0,3.4,0.7,4.6,1.9  c1.2,1.2,1.9,2.9,1.9,4.6v20.3h36c0.8,0,1.5,0.3,2,0.8l19.1,19.1l-4.1,4.1L128,32.5L93.3,32.6L93.3,32.6z" style="fill:#ffffff;"/>
</svg></g><!--ITEM: Illustration component 13--><g transform="translate(336.0 1485.0) rotate(0.0 99.0 73.5)  scale(8.284518828451883 8.497109826589595)"><svg width="23.9" height="17.3" viewBox="0.0 0.0 23.9 17.3"><g>
	<path d="M23.9,3.6c0-2-1.6-3.6-3.6-3.6C15.8,0,8.2,0,3.6,0C1.6,0,0,1.6,0,3.6c0,3,0,7.1,0,10.1c0,2,1.6,3.6,3.6,3.6   c4.5,0,12.2,0,16.7,0c2,0,3.6-1.6,3.6-3.6C23.9,10.8,23.9,6.6,23.9,3.6z" style="fill:#00e6b3;"/>
	<path d="M5.7,7.8h12.9c1.2,0,2.2-1,2.2-2.2s-1-2.2-2.2-2.2H5.7c-1.2,0-2.2,1-2.2,2.2C3.5,6.9,4.5,7.8,5.7,7.8z" style="fill:#00e6b3;"/>
	<path d="M5.7,14.5h9.1c1.2,0,2.2-1,2.2-2.2s-1-2.2-2.2-2.2H5.7c-1.2,0-2.2,1-2.2,2.2S4.5,14.5,5.7,14.5z" style="fill:#00e6b3;"/>
</g>
</svg></g><!--ITEM: Illustration component 14--><g transform="translate(2406.0 1419.0) rotate(0.0 123.0 186.0) translate(0.0 275.39048631544017) scale(3.716012084592145 3.742454728370221)"><svg width="66.2" height="25.81447758130443" viewBox="0.0 73.58552241869558 66.2 25.81447758130443"><g>
	<g>
		<path d="M7.9,99.4c-0.6,0-1.2-0.2-1.7-0.7c-0.9-0.9-0.9-2.4,0-3.3l24.3-24.3V36c0-1.3,1.1-2.4,2.4-2.4    s2.4,1.1,2.4,2.4v36.1c0,0.6-0.2,1.2-0.7,1.7l-25,25C9.1,99.2,8.5,99.4,7.9,99.4z" style="fill:#00E6B3;"/>
	</g>
	<path d="M66.2,5.4c0-3-2.4-5.4-5.4-5.4H5.4C2.4,0,0,2.4,0,5.4v31.4c0,3,2.4,5.4,5.4,5.4h55.4c3,0,5.4-2.4,5.4-5.4V5.4   L66.2,5.4z" style="fill:#00E6B3;"/>
</g>
</svg></g><!--ITEM: Illustration component 15--><g transform="translate(60.0 1461.0) rotate(0.0 1345.5 397.5)  scale(3.366818012914268 3.3754235201209206)"><svg width="799.271" height="235.526" viewBox="0.0 0.0 799.271 235.526"><g>
	<g>
		<path style="fill:#142664;" d="M799.205,231.733c-3.009-13.214-21.664-25.601-52.292-36.42c-1.006-5.067-2.239-8.691-3.527-12.81    c-2.65-8.46-6.58-15.64-11.63-21.59c-9.305-10.965-22.39-17.733-38.089-20.665c0-2.965,0-6.609,0-6.609c1.6-0.5,5.7-7.2,6.6-12.1    c0.35-1.81,0.651-3.613,0.93-5.409c1.326-1.468,2.439-3.338,3.237-5.725c1.814-5.428,6.28-18.51,5.026-35.06    c-1.112-14.685-9.53-26.565-17.771-34.49c-2.573-2.475-5.358-4.419-8.111-5.982c-1.929-1.095-3.347-2.909-3.963-5.039    c-1.954-6.753-2.129-7.987-2.129-7.987c-0.068-0.478-0.233-1.732-1.102-2.192c-1.689-0.894-4.754,1.895-5.25,2.346    c-0.788,0.716-1.531,1.606-2.196,2.616c-0.38,0.578-1.256,0.446-1.425-0.225c-2.101-8.342-1.905-18.074-3.2-20.993    c-4.291-9.672-19.32,2.276-26.49,23.458c-0.251,0.743-1.271,0.68-1.494-0.072c-0.809-2.729-1.156-4.393-1.382-6.553    c-0.072-0.691-0.175-1.974-1.134-2.539c-1.867-1.1-5.526,1.852-6.067,2.386c-8.945,8.826-13.239,22.721-12.313,37.017    c0.004,0.106,0.009,0.212,0.016,0.317c0.005,0.074,0.006,0.149,0.011,0.223c0.004,0.055,0.02,0.097,0.024,0.151    c0.266,2.932,1.404,5.727,3.634,8.176c0.86,0.946,1.831,1.968,2.819,3.088c-0.081,1.013-0.136,2.038-0.133,3.087    c0.02,9.69,0.9,31.25,3.96,47.3c2.4,12.3,10.9,15.9,13.1,16.5c0,0-0.099,3.854-0.1,6.159    c-13.333,3.479-25.905,11.582-34.672,23.808c-43.925-5.299-93.285-8.943-145.988-10.506    c-9.427-10.837-22.607-17.499-38.401-20.305c-0.006-2.319-0.099-5.982-0.099-5.982c8.992-1.745,12.437-6.761,14.837-19.061    c0.759-3.981,1.276-8.143,1.626-12.299c2.417,1.12,5.087-0.316,7.195-5.233c1.96-4.6,3.42-8.91,4.44-12.93    c10.35-3.69,19.12-11.14,21.89-23.48c3.61-16.09-7.9-32.37-23.99-35.98c-5.24-1.17-11.57-0.4-17.86,1.74    c-0.87-0.91-1.89-1.75-3.09-2.5c-2.19-1.38-4.98-2.44-8.55-2.97c-19.01-2.82-34.57-0.02-46.4,7.63c-8.33-3.7-17.33-5.3-24.26-3.5    c-15.95,4.16-26.91,20.82-22.75,36.78c2.96,11.39,10.98,18.37,20.521,21.96v0.01c-0.17,14.21,3.53,29.37,13.2,41.99    c1.751,2.283,3.717,1.839,5.094,0.069c2.615,4.38,6.193,6.723,10.998,7.775c0,0-0.1,3.9-0.1,6.2c0,0.108,0.017,0.212,0.027,0.317    c-0.702,0.137-1.418,0.279-2.168,0.433c-12.976,2.304-25.566,8.969-35.064,19.522c-49.732,1.631-96.39,5.118-138.185,10.099    c-8.706-11.156-21.078-18.297-36.047-21.727c-0.024-2.201-0.091-4.783-0.091-4.783c2.2-0.6,10.7-4.2,13.1-16.5    c2.793-14.649,3.769-33.883,3.934-44.497c10.965-8.54,10.546-28.89,10.546-30.668c-0.75-10.861-9.263-19.543-19.241-19.543    c-0.436,0-0.872,0.012-1.307,0.048c-2.119,0-3.959,0.521-5.8,1.308c-3.16,1.32-7.12,0.799-10.014-1.308    c-3.427-2.64-7.907-4.226-12.387-3.959c-6.067,0.266-11.333,3.959-14.76,8.96c-1.32,2.107-3.427,3.427-5.8,3.693    c-3.867,0.256-7.385,1.597-10.361,3.702c-0.672-0.788-1.346-1.579-2.025-2.387C58.486-19.033,5.909,71.356,80.836,84.48    c0.016,0.003,0.031,0.005,0.047,0.008c2.513,0.436,3.665,2.844,3.448,5.386c-0.295,3.468-0.524,13.9-0.039,17.7    c2.278,17.849,8.399,28.668,21.787,30.526c0,1.518,0,4.15,0,6.203c-11.49,2.289-22.616,7.98-31.474,16.77    c-6.26,6.21-11.39,13.97-14.72,23.16c-1.078,2.972-2.058,6.141-2.948,9.503c-33.347,11.186-53.716,24.136-56.872,37.997    c-0.45,1.976,1.458,3.793,3.946,3.793h791.246C797.746,235.526,799.655,233.709,799.205,231.733z"/>
	</g>
	<g>
		<g>
			<path style="fill:#FF2E93;" d="M731.756,160.914c-1.66-0.27-3.36-0.41-5.1-0.41h-67.51c-17.67,0-32,14.33-32,32v43h12.1v-15.05     c0-3.31,2.69-6,6-6h95.32c3.31,0,6,2.69,6,6v15.05h12.09v-43C758.656,176.574,747.016,163.354,731.756,160.914z"/>
		</g>
	</g>
	<g>
		<g>
			<path style="fill:#FF2E93;" d="M466.706,168.574c-5.84-6.2-14.12-10.07-23.31-10.07h-87.52c-17.67,0-32,14.33-32,32v45h12.1     v-17.05c0-3.31,2.69-6,6-6h115.32c3.31,0,6,2.69,6,6v17.05h12.1v-45C475.396,182.014,472.096,174.304,466.706,168.574z"/>
		</g>
	</g>
	<g>
		<g>
			<path style="fill:#FF2E93;" d="M148.146,160.504h-67.51c-2.06,0-4.08,0.19-6.03,0.57c-14.79,2.82-25.97,15.82-25.97,31.43v43     h12.1v-15.05c0-3.31,2.68-6,6-6h95.31c3.32,0,6,2.69,6,6v15.05h12.1v-43C180.146,174.834,165.826,160.504,148.146,160.504z"/>
		</g>
	</g>
</g>
</svg></g><!--ITEM: Illustration component 16--><g transform="translate(2058.0 1179.0) rotate(0.0 99.0 73.5)  scale(8.284518828451883 8.497109826589595)"><svg width="23.9" height="17.3" viewBox="0.0 0.0 23.9 17.3"><g>
	<path d="M23.9,3.6c0-2-1.6-3.6-3.6-3.6C15.8,0,8.2,0,3.6,0C1.6,0,0,1.6,0,3.6c0,3,0,7.1,0,10.1c0,2,1.6,3.6,3.6,3.6   c4.5,0,12.2,0,16.7,0c2,0,3.6-1.6,3.6-3.6C23.9,10.8,23.9,6.6,23.9,3.6z" style="fill:#FFFFFF;"/>
	<path d="M5.7,7.8h12.9c1.2,0,2.2-1,2.2-2.2s-1-2.2-2.2-2.2H5.7c-1.2,0-2.2,1-2.2,2.2C3.5,6.9,4.5,7.8,5.7,7.8z" style="fill:#142664;"/>
	<path d="M5.7,14.5h9.1c1.2,0,2.2-1,2.2-2.2s-1-2.2-2.2-2.2H5.7c-1.2,0-2.2,1-2.2,2.2S4.5,14.5,5.7,14.5z" style="fill:#142664;"/>
</g>
</svg></g><!--ITEM: Illustration component 17--><g transform="translate(2460.0 1365.0) rotate(0.0 123.0 186.0)  scale(3.716012084592145 3.742454728370221)"><svg width="66.2" height="99.4" viewBox="0.0 0.0 66.2 99.4"><g>
	<g>
		<path d="M7.9,99.4c-0.6,0-1.2-0.2-1.7-0.7c-0.9-0.9-0.9-2.4,0-3.3l24.3-24.3V36c0-1.3,1.1-2.4,2.4-2.4    s2.4,1.1,2.4,2.4v36.1c0,0.6-0.2,1.2-0.7,1.7l-25,25C9.1,99.2,8.5,99.4,7.9,99.4z" style="fill:#00E6B3;"/>
	</g>
	<path d="M66.2,5.4c0-3-2.4-5.4-5.4-5.4H5.4C2.4,0,0,2.4,0,5.4v31.4c0,3,2.4,5.4,5.4,5.4h55.4c3,0,5.4-2.4,5.4-5.4V5.4   L66.2,5.4z" style="fill:#00E6B3;"/>
</g>
</svg></g><!--ITEM: Illustration component 18--><g transform="translate(897.0 1482.0) rotate(0.0 60.0 60.0)  scale(4.511278195488722 4.511278195488722)"><svg width="26.6" height="26.6" viewBox="0.0 0.0 26.6 26.6"><circle cx="13.3" cy="13.3" r="13.3" style="fill:#142664;"/>
<path d="M18.2,16.8c0.3-0.5,0.3-1.1,0.1-1.6c-0.3-0.5-0.8-0.8-1.4-0.8H9.7c-0.6,0-1.1,0.3-1.4,0.8s-0.2,1.1,0.1,1.6  c0.9,1.3,2.7,2.3,4.9,2.3C15.5,19.1,17.3,18.1,18.2,16.8L18.2,16.8z" style="fill:#FFFFFF;"/>
<circle cx="5.6" cy="12.1" r="1.5" style="fill:#FFFFFF;"/>
<circle cx="20.9" cy="12.1" r="1.5" style="fill:#FFFFFF;"/>
</svg></g><!--ITEM: Illustration component 19--><g transform="translate(1818.0 1692.0) rotate(0.0 60.0 99.0)  scale(3.2677958716845485 3.3314264562371707)"><svg width="36.722" height="59.434" viewBox="0.0 0.0 36.722 59.434"><g>
	<g>
		<g>
			<path style="fill:#142664;" d="M36.722,20.005c0,1.522-0.263,3.168-0.789,4.939c-0.526,1.771-1.391,3.417-2.594,4.939     c-1.204,1.522-2.768,2.788-4.69,3.798c-1.923,1.01-4.268,1.515-7.035,1.515h-7.172c-1.105,0-2,0.895-2,2v5.712     c0,1.105-0.895,2-2,2H3.609c-1.105,0-2-0.895-2-2V29.758c0-0.747,0.138-1.445,0.415-2.096c0.276-0.649,0.657-1.224,1.141-1.722     c0.484-0.498,1.051-0.892,1.702-1.183c0.649-0.29,1.349-0.436,2.096-0.436h14.651c1.411,0,2.483-0.359,3.216-1.079     c0.733-0.719,1.1-1.798,1.1-3.237v-4.856c0-1.411-0.36-2.49-1.079-3.237c-0.72-0.747-1.799-1.121-3.237-1.121H2     c-1.105,0-2-0.895-2-2V2c0-1.105,0.895-2,2-2h19.614c1.521,0,3.168,0.27,4.939,0.81c1.771,0.539,3.41,1.404,4.918,2.594     c1.508,1.19,2.76,2.753,3.756,4.69c0.996,1.937,1.494,4.289,1.494,7.056V20.005z M12.317,54.08c0,0.747-0.139,1.446-0.415,2.096     c-0.277,0.65-0.658,1.218-1.141,1.701c-0.485,0.485-1.052,0.865-1.702,1.142c-0.65,0.277-1.349,0.415-2.096,0.415     c-0.72,0-1.405-0.138-2.055-0.415c-0.65-0.276-1.218-0.657-1.701-1.142c-0.485-0.483-0.872-1.051-1.162-1.701     c-0.291-0.65-0.436-1.349-0.436-2.096c0-0.719,0.145-1.404,0.436-2.054c0.29-0.65,0.677-1.217,1.162-1.702     c0.483-0.483,1.051-0.871,1.701-1.162c0.65-0.29,1.335-0.436,2.055-0.436c0.747,0,1.445,0.146,2.096,0.436     c0.65,0.291,1.217,0.679,1.702,1.162c0.483,0.485,0.864,1.052,1.141,1.702C12.179,52.676,12.317,53.36,12.317,54.08z"/>
		</g>
	</g>
</g>
</svg></g><!--ITEM: Illustration component 20--><g transform="translate(1167.0 192.0) rotate(180.0 -312.0 424.5) translate(-3.0 112.511029562923) scale(-3.5636778983438036 3.559748427672956)"><svg width="174.25817307692307" height="203.94699646643113" viewBox="0.8418269230769231 31.606455301245152 174.25817307692307 203.94699646643113"><g>
	<path d="M175,142.5c-9,0-16.4,7.3-16.4,16.4V206c0,17.9-14.5,32.5-32.5,32.5H49.9C22.4,238.5,0,216.1,0,188.6h15.2   c0,19.1,15.5,34.7,34.7,34.7h76.3v7.6v-7.6c9.5,0,17.3-7.7,17.3-17.3v-47.1c0-17.4,14.1-31.6,31.6-31.6L175,142.5L175,142.5z" style="fill:#FF2E93;"/>
	<path d="M119.6,223.6h-7.2v14.5h7.2V223.6z M76.2,223.6h-7.3v14.5h7.2L76.2,223.6L76.2,223.6z M54.5,223.6h-4.6   c-0.7,0-1.5,0-2.2-0.1L46.8,238c1,0.1,2,0.1,3.1,0.1c0,0,1.7,0,4.6,0V223.6z M97.9,223.6h-7.2v14.5h7.2V223.6z M136.2,220.4   c-1.4,1-2.9,1.8-4.6,2.3l4.6,13.7c3-1,5.8-2.4,8.3-4.2L136.2,220.4L136.2,220.4z M143.7,207.5c-0.1,1.7-0.5,3.4-1.2,5l13.5,5.3   c1.1-2.8,1.9-5.9,2.1-9.1L143.7,207.5L143.7,207.5z M143.8,186.4v7.2h14.5v-7.2H143.8z M143.8,164.7v7.2h14.5v-7.2H143.8z    M150.4,139.7c-1.9,2.5-3.5,5.2-4.6,8.2l13.5,5.1c0.6-1.6,1.4-3.1,2.5-4.4L150.4,139.7L150.4,139.7z M175,127.7   c-3.2,0-6.4,0.5-9.3,1.4l4.3,13.8c1.6-0.5,3.2-0.8,5-0.8V127.7z" style="fill:#142664;"/>
	<path d="M15.2,188.6c0-19.1,15.5-34.7,34.7-34.7h43.5c27.5,0,49.9-22.4,49.9-49.9s-22.4-49.9-49.9-49.9H73.8v15.2h19.6   c19.1,0,34.7,15.5,34.7,34.7c0,19.1-15.5,34.7-34.7,34.7H49.9C22.4,138.7,0,161.1,0,188.6L15.2,188.6L15.2,188.6z" style="fill:#FF2E93;"/>
	<path d="M22,209.9c-1.2-1.6-2.3-3.3-3.2-5.1L6,211.5c1.3,2.5,2.8,4.9,4.6,7.1L22,209.9z" style="fill:#142664;"/>
	<path d="M15.1,193.5c-0.2-1.6-0.3-3.2-0.3-4.9c0-0.4,0-0.8,0-1.1L0.3,187c0,0.5,0,1.1,0,1.6c0,2.3,0.2,4.6,0.5,6.9   L15.1,193.5z" style="fill:#142664;"/>
	<path d="M17.2,175.8c0.7-1.9,1.6-3.7,2.7-5.4l-12.4-7.5c-1.5,2.4-2.7,4.9-3.8,7.6L17.2,175.8z" style="fill:#142664;"/>
	<path d="M27.8,161.4c1.5-1.3,3.2-2.4,5-3.4l-7.1-12.6c-2.5,1.4-4.8,3-7,4.8L27.8,161.4L27.8,161.4z" style="fill:#142664;"/>
	<path d="M35.33,220.453c-1.835-0.756-3.582-1.78-5.284-2.939l-8.065,12.005c2.374,1.604,4.837,2.94,7.434,4.096   L35.33,220.453L35.33,220.453z" style="fill:#142664;"/>
	<path d="M44,154c1.9-0.3,3.9-0.5,5.9-0.5c0,0,0,0,0.1,0v-14.4h-0.1c-2.8,0-5.6,0.2-8.3,0.7L44,154z" style="fill:#142664;"/>
	<rect x="64.4" y="139.1" width="7.2" height="14.4" style="fill:#142664;"/>
	<polygon points="86.2,153.5 93.5,153.5 93.5,139 86.3,139 86.2,153.5  " style="fill:#142664;"/>
	<path d="M110,150.6c2.7-1,5.3-2.1,7.7-3.5l-7.2-12.6c-1.7,1-3.5,1.8-5.4,2.5L110,150.6L110,150.6z" style="fill:#142664;"/>
	<path d="M130.8,136.4c1.8-2.1,3.5-4.4,5-6.8l-12.4-7.5c-1,1.7-2.2,3.3-3.5,4.9L130.8,136.4z" style="fill:#142664;"/>
	<path d="M141.9,113.8c0.5-2.7,0.9-5.5,1-8.4l-14.5-0.4c-0.1,2-0.3,4-0.7,6L141.9,113.8z" style="fill:#142664;"/>
	<path d="M140.4,88.7c-0.9-2.7-2-5.3-3.3-7.8l-12.8,6.8c0.9,1.8,1.7,3.6,2.3,5.5L140.4,88.7z" style="fill:#142664;"/>
	<path d="M126.8,67.6c-2.1-1.9-4.3-3.6-6.7-5.2l-7.8,12.2c1.7,1.1,3.3,2.3,4.7,3.7L126.8,67.6z" style="fill:#142664;"/>
	<path d="M104.6,55.8c-2.7-0.6-5.5-1-8.4-1.2l-0.8,14.5c2,0.1,4,0.4,5.9,0.9L104.6,55.8L104.6,55.8z" style="fill:#142664;"/>
	<rect x="74.1" y="54.5" width="7.2" height="14.5" style="fill:#142664;"/>
	<circle cx="72.8" cy="52.3" r="19.9" style="fill:#142664;"/>
	<g>
		<path d="M49,54.2c2.1,2.1,5.5,2.1,7.6,0l0,0c2.1-2.1,2.1-5.5,0-7.6C51.7,41.7,44,34,44,34c-2.1-2.1-5.5-2.1-7.6,0    s-2.1,5.5,0,7.6C36.3,41.5,44.1,49.3,49,54.2L49,54.2z" style="fill:#ffffff;"/>
		<g>
			<path d="M48.6,38.7l-2.5-2.5l-7.6,7.6l2.5,2.5L48.6,38.7z" style="fill:#142664;"/>
		</g>
	</g>
	<g>
		<path d="M90.6,41.3c0,3-2.4,5.3-5.3,5.3l0,0c-3,0-5.3-2.4-5.3-5.3c0-11.2,0-36,0-36C80,2.4,82.4,0,85.3,0    s5.3,2.4,5.3,5.3V41.3L90.6,41.3z" style="fill:#ffffff;"/>
		<g>
			<path d="M79.9,28.6V25h10.7v3.6H79.9z" style="fill:#142664;"/>
		</g>
		<g>
			<path d="M79.9,16.2v-3.6h10.7v3.6H79.9z" style="fill:#142664;"/>
		</g>
	</g>
	<g>
		<path d="M78.2,41.3c0,3-2.4,5.3-5.3,5.3l0,0c-3,0-5.3-2.4-5.3-5.3c0-11.2,0-36,0-36C67.6,2.4,70,0,72.9,0    s5.3,2.4,5.3,5.3V41.3L78.2,41.3z" style="fill:#ffffff;"/>
		<g>
			<path d="M67.5,28.6V25h10.7v3.6H67.5z" style="fill:#142664;"/>
		</g>
		<g>
			<path d="M67.5,16.2v-3.6h10.7v3.6H67.5z" style="fill:#142664;"/>
		</g>
	</g>
	<g>
		<path d="M65.8,41.3c0,3-2.4,5.3-5.3,5.3l0,0c-3,0-5.3-2.4-5.3-5.3c0-11.2,0-36,0-36c0-2.9,2.4-5.3,5.3-5.3    s5.3,2.4,5.3,5.3V41.3L65.8,41.3z" style="fill:#ffffff;"/>
		<g>
			<path d="M55.1,28.6V25h10.7v3.6H55.1z" style="fill:#142664;"/>
		</g>
		<g>
			<path d="M55.1,16.2v-3.6h10.7v3.6H55.1z" style="fill:#142664;"/>
		</g>
	</g>
	<path d="M77.5,5.6c0-0.4,0.2-0.8,0.4-1.1c0.3-0.3,0.7-0.4,1.1-0.4l0,0c0.4,0,0.8,0.2,1.1,0.4c0.3,0.3,0.4,0.7,0.4,1.1   c0,8,0,45.1,0,45.1h-3V5.6L77.5,5.6z" style="fill:#142664;"/>
	<path d="M65.1,5.6c0-0.4,0.2-0.8,0.4-1.1c0.3-0.3,0.7-0.4,1.1-0.4l0,0c0.4,0,0.8,0.2,1.1,0.4c0.3,0.3,0.4,0.7,0.4,1.1   c0,8,0,45.1,0,45.1h-3V5.6L65.1,5.6z" style="fill:#142664;"/>
</g>
</svg></g><!--ITEM: Illustration component 21--><g transform="translate(1167.0 129.0) rotate(180.0 -312.0 424.5) translate(-3.0 0.0) scale(-3.5636778983438036 3.559748427672956)"><svg width="174.25817307692307" height="16.012367491166078" viewBox="0.8418269230769231 0.0 174.25817307692307 16.012367491166078"><g>
	<path d="M175,142.5c-9,0-16.4,7.3-16.4,16.4V206c0,17.9-14.5,32.5-32.5,32.5H49.9C22.4,238.5,0,216.1,0,188.6h15.2   c0,19.1,15.5,34.7,34.7,34.7h76.3v7.6v-7.6c9.5,0,17.3-7.7,17.3-17.3v-47.1c0-17.4,14.1-31.6,31.6-31.6L175,142.5L175,142.5z" style="fill:#FF2E93;"/>
	<path d="M119.6,223.6h-7.2v14.5h7.2V223.6z M76.2,223.6h-7.3v14.5h7.2L76.2,223.6L76.2,223.6z M54.5,223.6h-4.6   c-0.7,0-1.5,0-2.2-0.1L46.8,238c1,0.1,2,0.1,3.1,0.1c0,0,1.7,0,4.6,0V223.6z M97.9,223.6h-7.2v14.5h7.2V223.6z M136.2,220.4   c-1.4,1-2.9,1.8-4.6,2.3l4.6,13.7c3-1,5.8-2.4,8.3-4.2L136.2,220.4L136.2,220.4z M143.7,207.5c-0.1,1.7-0.5,3.4-1.2,5l13.5,5.3   c1.1-2.8,1.9-5.9,2.1-9.1L143.7,207.5L143.7,207.5z M143.8,186.4v7.2h14.5v-7.2H143.8z M143.8,164.7v7.2h14.5v-7.2H143.8z    M150.4,139.7c-1.9,2.5-3.5,5.2-4.6,8.2l13.5,5.1c0.6-1.6,1.4-3.1,2.5-4.4L150.4,139.7L150.4,139.7z M175,127.7   c-3.2,0-6.4,0.5-9.3,1.4l4.3,13.8c1.6-0.5,3.2-0.8,5-0.8V127.7z" style="fill:#142664;"/>
	<path d="M15.2,188.6c0-19.1,15.5-34.7,34.7-34.7h43.5c27.5,0,49.9-22.4,49.9-49.9s-22.4-49.9-49.9-49.9H73.8v15.2h19.6   c19.1,0,34.7,15.5,34.7,34.7c0,19.1-15.5,34.7-34.7,34.7H49.9C22.4,138.7,0,161.1,0,188.6L15.2,188.6L15.2,188.6z" style="fill:#FF2E93;"/>
	<path d="M22,209.9c-1.2-1.6-2.3-3.3-3.2-5.1L6,211.5c1.3,2.5,2.8,4.9,4.6,7.1L22,209.9z" style="fill:#142664;"/>
	<path d="M15.1,193.5c-0.2-1.6-0.3-3.2-0.3-4.9c0-0.4,0-0.8,0-1.1L0.3,187c0,0.5,0,1.1,0,1.6c0,2.3,0.2,4.6,0.5,6.9   L15.1,193.5z" style="fill:#142664;"/>
	<path d="M17.2,175.8c0.7-1.9,1.6-3.7,2.7-5.4l-12.4-7.5c-1.5,2.4-2.7,4.9-3.8,7.6L17.2,175.8z" style="fill:#142664;"/>
	<path d="M27.8,161.4c1.5-1.3,3.2-2.4,5-3.4l-7.1-12.6c-2.5,1.4-4.8,3-7,4.8L27.8,161.4L27.8,161.4z" style="fill:#142664;"/>
	<path d="M35.33,220.453c-1.835-0.756-3.582-1.78-5.284-2.939l-8.065,12.005c2.374,1.604,4.837,2.94,7.434,4.096   L35.33,220.453L35.33,220.453z" style="fill:#142664;"/>
	<path d="M44,154c1.9-0.3,3.9-0.5,5.9-0.5c0,0,0,0,0.1,0v-14.4h-0.1c-2.8,0-5.6,0.2-8.3,0.7L44,154z" style="fill:#142664;"/>
	<rect x="64.4" y="139.1" width="7.2" height="14.4" style="fill:#142664;"/>
	<polygon points="86.2,153.5 93.5,153.5 93.5,139 86.3,139 86.2,153.5  " style="fill:#142664;"/>
	<path d="M110,150.6c2.7-1,5.3-2.1,7.7-3.5l-7.2-12.6c-1.7,1-3.5,1.8-5.4,2.5L110,150.6L110,150.6z" style="fill:#142664;"/>
	<path d="M130.8,136.4c1.8-2.1,3.5-4.4,5-6.8l-12.4-7.5c-1,1.7-2.2,3.3-3.5,4.9L130.8,136.4z" style="fill:#142664;"/>
	<path d="M141.9,113.8c0.5-2.7,0.9-5.5,1-8.4l-14.5-0.4c-0.1,2-0.3,4-0.7,6L141.9,113.8z" style="fill:#142664;"/>
	<path d="M140.4,88.7c-0.9-2.7-2-5.3-3.3-7.8l-12.8,6.8c0.9,1.8,1.7,3.6,2.3,5.5L140.4,88.7z" style="fill:#142664;"/>
	<path d="M126.8,67.6c-2.1-1.9-4.3-3.6-6.7-5.2l-7.8,12.2c1.7,1.1,3.3,2.3,4.7,3.7L126.8,67.6z" style="fill:#142664;"/>
	<path d="M104.6,55.8c-2.7-0.6-5.5-1-8.4-1.2l-0.8,14.5c2,0.1,4,0.4,5.9,0.9L104.6,55.8L104.6,55.8z" style="fill:#142664;"/>
	<rect x="74.1" y="54.5" width="7.2" height="14.5" style="fill:#142664;"/>
	<circle cx="72.8" cy="52.3" r="19.9" style="fill:#142664;"/>
	<g>
		<path d="M49,54.2c2.1,2.1,5.5,2.1,7.6,0l0,0c2.1-2.1,2.1-5.5,0-7.6C51.7,41.7,44,34,44,34c-2.1-2.1-5.5-2.1-7.6,0    s-2.1,5.5,0,7.6C36.3,41.5,44.1,49.3,49,54.2L49,54.2z" style="fill:#ffffff;"/>
		<g>
			<path d="M48.6,38.7l-2.5-2.5l-7.6,7.6l2.5,2.5L48.6,38.7z" style="fill:#142664;"/>
		</g>
	</g>
	<g>
		<path d="M90.6,41.3c0,3-2.4,5.3-5.3,5.3l0,0c-3,0-5.3-2.4-5.3-5.3c0-11.2,0-36,0-36C80,2.4,82.4,0,85.3,0    s5.3,2.4,5.3,5.3V41.3L90.6,41.3z" style="fill:#ffffff;"/>
		<g>
			<path d="M79.9,28.6V25h10.7v3.6H79.9z" style="fill:#142664;"/>
		</g>
		<g>
			<path d="M79.9,16.2v-3.6h10.7v3.6H79.9z" style="fill:#142664;"/>
		</g>
	</g>
	<g>
		<path d="M78.2,41.3c0,3-2.4,5.3-5.3,5.3l0,0c-3,0-5.3-2.4-5.3-5.3c0-11.2,0-36,0-36C67.6,2.4,70,0,72.9,0    s5.3,2.4,5.3,5.3V41.3L78.2,41.3z" style="fill:#ffffff;"/>
		<g>
			<path d="M67.5,28.6V25h10.7v3.6H67.5z" style="fill:#142664;"/>
		</g>
		<g>
			<path d="M67.5,16.2v-3.6h10.7v3.6H67.5z" style="fill:#142664;"/>
		</g>
	</g>
	<g>
		<path d="M65.8,41.3c0,3-2.4,5.3-5.3,5.3l0,0c-3,0-5.3-2.4-5.3-5.3c0-11.2,0-36,0-36c0-2.9,2.4-5.3,5.3-5.3    s5.3,2.4,5.3,5.3V41.3L65.8,41.3z" style="fill:#ffffff;"/>
		<g>
			<path d="M55.1,28.6V25h10.7v3.6H55.1z" style="fill:#142664;"/>
		</g>
		<g>
			<path d="M55.1,16.2v-3.6h10.7v3.6H55.1z" style="fill:#142664;"/>
		</g>
	</g>
	<path d="M77.5,5.6c0-0.4,0.2-0.8,0.4-1.1c0.3-0.3,0.7-0.4,1.1-0.4l0,0c0.4,0,0.8,0.2,1.1,0.4c0.3,0.3,0.4,0.7,0.4,1.1   c0,8,0,45.1,0,45.1h-3V5.6L77.5,5.6z" style="fill:#142664;"/>
	<path d="M65.1,5.6c0-0.4,0.2-0.8,0.4-1.1c0.3-0.3,0.7-0.4,1.1-0.4l0,0c0.4,0,0.8,0.2,1.1,0.4c0.3,0.3,0.4,0.7,0.4,1.1   c0,8,0,45.1,0,45.1h-3V5.6L65.1,5.6z" style="fill:#142664;"/>
</g>
</svg></g><!--ITEM: Illustration component 22--><g transform="translate(1206.0 531.0) rotate(-180.0 291.0 18.0) translate(77.59381349167126 0.0) scale(3.7524177949709867 3.495145631067961)"><svg width="134.31340206185564" height="10.3" viewBox="20.67835132741961 0.0 134.31340206185564 10.3"><g>
	<path d="M13.3,0c1,0,1.9,0.4,2.6,1.1S17,2.7,17,3.7c0,0.9,0,1.9,0,2.8c0,1-0.4,1.9-1.1,2.6s-1.6,1.1-2.6,1.1   c-2.9,0-6.8,0-9.6,0c-1,0-1.9-0.4-2.6-1.1S0,7.5,0,6.5c0-0.9,0-1.9,0-2.8c0-1,0.4-1.9,1.1-2.6S2.7,0,3.7,0C6.5,0,10.4,0,13.3,0z" style="fill:#ffffff;"/>
	<path d="M104.8,6.6c0,2-1.7,3.7-3.7,3.7c-13.6,0-60.8,0-74.4,0c-2,0-3.7-1.7-3.7-3.7c0-0.9,0-1.9,0-2.8   c0-2,1.7-3.7,3.7-3.7c13.6,0,60.8,0,74.4,0c2,0,3.7,1.7,3.7,3.7C104.8,4.7,104.8,5.7,104.8,6.6L104.8,6.6z" style="fill:#ffffff;"/>
	<path d="M110.8,3.7c0-1,0.4-1.9,1.1-2.6s1.6-1.1,2.6-1.1h36.9c1,0,1.9,0.4,2.6,1.1c0.7,0.7,1.1,1.6,1.1,2.6v2.8   c0,1-0.4,1.9-1.1,2.6c-0.7,0.7-1.6,1.1-2.6,1.1h-36.9c-1,0-1.9-0.4-2.6-1.1s-1.1-1.6-1.1-2.6V3.7z" style="fill:#ffffff;"/>
</g>
</svg></g><!--ITEM: Illustration component 23--><g transform="translate(1728.0 531.0) rotate(0.0 291.0 18.0)  scale(3.7524177949709867 3.495145631067961)"><svg width="155.1" height="10.3" viewBox="0.0 0.0 155.1 10.3"><g>
	<path d="M13.3,0c1,0,1.9,0.4,2.6,1.1S17,2.7,17,3.7c0,0.9,0,1.9,0,2.8c0,1-0.4,1.9-1.1,2.6s-1.6,1.1-2.6,1.1   c-2.9,0-6.8,0-9.6,0c-1,0-1.9-0.4-2.6-1.1S0,7.5,0,6.5c0-0.9,0-1.9,0-2.8c0-1,0.4-1.9,1.1-2.6S2.7,0,3.7,0C6.5,0,10.4,0,13.3,0z" style="fill:#FF2E93;"/>
	<path d="M104.8,6.6c0,2-1.7,3.7-3.7,3.7c-13.6,0-60.8,0-74.4,0c-2,0-3.7-1.7-3.7-3.7c0-0.9,0-1.9,0-2.8   c0-2,1.7-3.7,3.7-3.7c13.6,0,60.8,0,74.4,0c2,0,3.7,1.7,3.7,3.7C104.8,4.7,104.8,5.7,104.8,6.6L104.8,6.6z" style="fill:#FF2E93;"/>
	<path d="M110.8,3.7c0-1,0.4-1.9,1.1-2.6s1.6-1.1,2.6-1.1h36.9c1,0,1.9,0.4,2.6,1.1c0.7,0.7,1.1,1.6,1.1,2.6v2.8   c0,1-0.4,1.9-1.1,2.6c-0.7,0.7-1.6,1.1-2.6,1.1h-36.9c-1,0-1.9-0.4-2.6-1.1s-1.1-1.6-1.1-2.6V3.7z" style="fill:#FF2E93;"/>
</g>
</svg></g><!--ITEM: Illustration component 24--><g transform="translate(2349.0 522.0) rotate(0.0 24.0 24.0)  scale(0.9748766171781383 0.9748568179048702)"><svg width="49.237" height="49.238" viewBox="0.0 0.0 49.237 49.238"><circle cx="24.619" cy="24.619" r="24.619" style="fill:#00E6B3;"/>
</svg></g><!--ITEM: Illustration component 25--><g transform="translate(2508.0 1386.0) rotate(0.0 42.0 58.5)  scale(5.470174524615786 5.445913237758331)"><svg width="15.356" height="21.484" viewBox="0.0 0.0 15.356 21.484"><g>
	<path d="M7.5,16.444c-0.2-0.2-0.4-0.3-0.6-0.3c-1.1,0-4.4,0-6,0c-0.2,0-0.5-0.1-0.6-0.3c-0.2-0.2-0.3-0.4-0.3-0.6   c0-2,0-6.8,0-8.7c0-0.2,0.1-0.5,0.3-0.6c0.2-0.2,0.4-0.3,0.6-0.3c1.6,0,4.9,0,6,0c0.2,0,0.5-0.1,0.6-0.3c1-1,4.8-4.8,5.3-5.3   c0,0,0.1-0.1,0.1,0l0,0c3.1,0,3.3,19.3,0.4,21.4c-0.3,0.1-0.6,0-0.8-0.2C11.4,20.344,8.4,17.344,7.5,16.444L7.5,16.444z" style="fill:#142664;"/>
</g>
</svg></g><!--ITEM: Illustration component 26--><g transform="translate(2598.0 1419.0) rotate(90.0 28.5 27.0)  scale(2.2506515043828474 2.305131050969009)"><svg width="25.326" height="23.426" viewBox="0.0 0.0 25.326 23.426"><path d="M7.863,11.763c-0.8-0.8-1.6-1.7-2.4-2.5c-2.8-2.9-4.7-5.1-4.7-5.1c-1-0.9-1-2.4-0.1-3.4s2.4-1,3.4-0.1  c0,0,2.4,1.7,5.5,4.2c1,0.8,2,1.6,3.1,2.5c1.1-0.9,2.1-1.7,3.1-2.5c3.1-2.5,5.5-4.2,5.5-4.2c1-0.9,2.5-0.8,3.4,0.1  c0.9,1,0.8,2.5-0.1,3.4c0,0-1.9,2.2-4.7,5.1c-0.8,0.8-1.6,1.6-2.4,2.5c0.2,0.2,0.3,0.3,0.5,0.5c3.7,3.8,6.6,7,6.6,7  c1,0.9,1,2.4,0.1,3.4s-2.4,1-3.4,0.1c0,0-3.5-2.6-7.6-6c-0.3-0.3-0.6-0.5-0.9-0.8c-0.3,0.3-0.6,0.5-0.9,0.8c-4.1,3.4-7.6,6-7.6,6  c-1,0.9-2.5,0.8-3.4-0.1c-0.9-1-0.8-2.5,0.1-3.4c0,0,2.9-3.3,6.6-7C7.563,12.163,7.763,11.963,7.863,11.763z" style="fill:#142664;"/>
</svg></g></svg>