<svg enable-background="new 0 0 400 351" height="300" viewBox="0 0 400 351" width="300" xmlns="http://www.w3.org/2000/svg" xmlns:xlink="http://www.w3.org/1999/xlink"><linearGradient id="a"><stop offset="0" stop-color="#ffbeb6"/><stop offset="1" stop-color="#f2a19c"/></linearGradient><linearGradient id="b" gradientUnits="userSpaceOnUse" x1="312.55962" x2="271.38916" xlink:href="#a" y1="81.21924" y2="84.15334"/><linearGradient id="c" gradientUnits="userSpaceOnUse" x1="272.34775" x2="221.2543" xlink:href="#a" y1="82.95078" y2="83.29521"/><linearGradient id="d" gradientUnits="userSpaceOnUse" x1="271.98901" x2="223.94929" xlink:href="#a" y1="175.60725" y2="175.07288"/><linearGradient id="e" gradientUnits="userSpaceOnUse" x1="362.8291" x2="377.65308" y1="208.03423" y2="149.36814"><stop offset="0" stop-color="#428dfc"/><stop offset="1" stop-color="#1d72d8"/></linearGradient><linearGradient id="f" gradientUnits="userSpaceOnUse" x1="231.60562" x2="217.57727" y1="211.42788" y2="328.96592"><stop offset="0" stop-color="#23286b"/><stop offset="1" stop-color="#151a4f"/></linearGradient><linearGradient id="g" gradientUnits="userSpaceOnUse" x1="308.22344" x2="393.8168" y1="133.49148" y2="176.15635"><stop offset="0" stop-color="#a1c3fc"/><stop offset="1" stop-color="#78a9ef"/></linearGradient><linearGradient id="h" gradientUnits="userSpaceOnUse" x1="173.90613" x2="294.65957" y1="175.35361" y2="175.35361"><stop offset="0" stop-color="#eee"/><stop offset="1" stop-color="#d6d7d8"/></linearGradient><linearGradient id="i" gradientUnits="userSpaceOnUse" x1="237.73657" x2="238.98364" xlink:href="#a" y1="184.97683" y2="214.79456"/><path d="m291.478 83.353c-1.006-.575-1.181 1.655-1.353 2.678-1.151 6.823-2.099 13.783-4.892 20.114-.555 1.257-1.184 2.702-.593 3.942.225.47.602.844.966 1.216 3.605 3.694 7.492 6.349 9.406 11.143 1.506-4.781 2.846-8.573 3.608-13.528.902-5.865 1.271-7.596 1.443-13.528.033-1.137-.861-5.518-1.29-6.571-.432-1.052-5.433-4.21-7.295-5.466z" fill="#1d72d8"/><path d="m292.04 103.153c4.771-2.006 8.922-6.811 8.053-11.914-.123-.722-.358-1.457-.869-1.981-.581-.596-1.426-.835-2.226-1.069-13.353-3.893-25.23-12.649-32.896-24.254-2.438 8.062-4.169 16.336-5.167 24.7 1.877 2.372 5.187 2.879 8.116 3.639 7.923 2.056 14.717 7.016 22.01 10.733.471.24.963.48 1.491.505.512.025 1.013-.16 1.488-.359z" fill="url(#b)"/><path d="m279.614 78.351c-.295-7.497-2.253-15.668-8.33-20.069-3.857-2.793-8.873-3.619-13.614-3.169-4.742.451-9.286 2.074-13.722 3.806-5.914 2.31-12.316 5.414-14.569 11.35-1.514 3.991-.786 8.487.55 12.541 2.454 7.447 6.98 14.284 13.234 19.014 1.64 1.24 3.404 2.325 5.251 3.241 2.024 2.24 2.837 2.867 4.986 5.255 1.965 2.183 2.555-.69 3.321-2.456 2.799.527 5.664.669 8.502.36 2.818-.307 5.68-1.086 7.88-2.874 3.14-2.552 4.438-6.708 5.228-10.675 1.065-5.366 1.497-10.858 1.283-16.324z" fill="url(#c)"/><path d="m298.586 151.546c-1.393-8.847-4.061-25.438-3.099-34.342s4.083-10.404 11.094-15.978c3.944-3.136 10.051-4.885 13.798-1.517 2.623 2.358 5.646 8.035 5.84 11.557 1.946 35.197 8.598 65.955-5.227 103.83-4.339.265-8.746-.707-12.571-2.773-.647-.35-1.294-.744-1.742-1.328-.593-.774-.762-1.782-.914-2.745-2.001-12.713-2.724-22.168-4.725-34.881-.981-6.237-1.472-15.59-2.454-21.823z" fill="#89b3f4"/><path d="m212.631 157.499c3.028-3.158 24.019-4.613 34.799-3.551 4.719.465 9.542-.399 14.194.524 4.719.935 8.875 3.628 12.9 6.265 7.874 5.16 12.012 16.134 19.886 21.293 2.93 1.92 9.561 12.264 12.989 12.987-1.841 5.467-18.363-3.062-20.204 2.406-8.992-11.491-11.753-13.207-21.361-24.191-3.017-3.45-5.242-7.821-9.26-10.026-2.719-1.492-5.905-1.781-8.967-2.271-11.605-1.857-39.955 1.756-34.976-3.436z" fill="url(#d)"/><path d="m298.912 207.765c3.163 3.528 6.372 7.096 10.325 9.708s7.944.562 11.818-2.665c2.97-10.974-5.66-18.63-15.157-27.317s-22.032-18.199-29.221-25.171c-.72 4.825-5.449 10.232-9.995 12.001 10.896 13.691 21.911 21.935 32.23 33.444z" fill="#89b3f4"/><path d="m79.98 318.151c10.186-1.949 46.18-.006 46.18-.006s4.044 19.725 3.942 32.712c-15.192.02-30.384.041-45.576.061-25.533.034-31.572.275-58.531-.275-.574-6.059 11.515-17.188 33.553-22.386 4.87-1.147 15.517-9.165 20.432-10.106z" fill="#f7931e"/><path d="m54.004 318.151c10.186-1.949 46.18-.006 46.18-.006s4.044 19.725 3.942 32.712c-15.192.02-30.384.041-45.576.061-25.533.034-31.572.275-58.531-.275-.574-6.059 11.515-17.188 33.553-22.386 4.87-1.147 15.516-9.165 20.432-10.106z" fill="#fbb03b"/><path d="m202.759 232.999c30.418 16.67 54.742 44.718 87.929 54.806 24.9 7.568 52.951 3.639 75.078-10.059 11.391-7.051 21.7-17.346 24.556-30.433.284-1.3.485-2.69.01-3.932-.581-1.521-2.041-2.497-3.424-3.36-11.176-6.974-22.849-13.153-34.899-18.475-6.024 2.027-7.589 10.989-13.712 12.689-3.569.991-7.215-.94-10.503-2.645-21.092-10.94-104.983-85.804-127.669-69.281-58.448 42.566-89.836 88.381-136.017 156.202 18.401 1.082 62.416.36 62.416.36s9.882-8.202 21.647-21.645c10.102-11.543 8.067-25.408 15.875-28.86s21.4-16.164 23.838-24.344c1.472-4.939 2.042-11.534 7.01-12.912 2.665-.737 5.437.558 7.865 1.889z" fill="#151a4f"/><path d="m365.066 143.602c2.851-.12 5.868.159 8.221 1.774 1.941 1.333 3.211 3.42 4.365 5.472 15.873 28.179 21.345 62.064 15.152 93.806-.48 2.46-1.077 5.011-2.687 6.933-1.736 2.071-4.393 3.105-6.978 3.895-7.887 2.409-16.234 3.299-24.452 2.608-4.895-.412-10.32-1.759-12.869-5.959-2.597-4.281-1.195-9.762.295-14.542 4.064-13.036 8.295-26.361 7.749-40.005-.547-13.643-6.892-27.916-19.085-34.063 5.514-11.432 17.61-19.386 30.289-19.919z" fill="url(#e)"/><path d="m356.306 301.582c-6.587 2.67-13.855 3.178-20.957 2.936-24.242-.83-48.096-10.335-66.266-26.402-22.977-20.318-43.387-51.578-72.361-61.641-19.534-5.978-12.905 19.467-33.087 40.657-7.972 8.37-19.708 9.148-26.31 17.139-7.574 9.168-2.472 4.911-8.77 20.328-1.838 4.499-25.453 23.838-28.369 23.912-20.467.522-26.079.8-47.985.263 20.925-49.324 69.178-98.712 105.172-150.548 1.999-2.879 5.123-5.036 8.5-5.979 2.279-.636 4.693-.481 7.05-.289 56.463 4.57 111.381 26.687 155.25 62.522 3.687 3.011 7.367 4.449 10.012 9.258 1.942 3.533.427 10.206-.481 16.114-.908 5.907-1.625 9.07 4.089 10.822-2.256-10.424-1.202-27.657-1.202-27.657s7.273-8.433 10.866-13.728c14.142 7.502 29.918 8.1 44.695 1.943 0 22.847-5.399 34.746-12.989 50.596-5.906 12.336-14.179 24.614-26.857 29.754z" fill="url(#f)"/><path d="m294.01 90.762c3.119-4.203 18.367-1.457 24.545 2.034 23.033 13.015 39.903 27.451 54.82 49.301 5.044 7.387 8.707 13.665 14.14 27.036-12.155.792-15.656 17.227-48.849 25.403-6.254-21.164-12.286-32.901-26.458-45.214-10.647-9.249-11.812-11.343-16.356-28.379-2.885-10.823-6.272-18.451-1.842-30.181z" fill="url(#g)"/><path d="m312.185 140.427c-5.13 25.226-7.555 51.002-7.22 76.742-6.349-.631-12.474-3.339-17.214-7.609-.72 1.443-1.441 2.887-2.161 4.33" fill="none" stroke="#000" stroke-miterlimit="10"/><path d="m274.346 82.231c4.952-1.729 10.166-5.129 10.693-10.347.467-4.622-2.926-8.643-6.097-12.04-3.366-3.609-6.731-7.218-10.097-10.826-.715-.768-1.463-1.556-2.436-1.952-1.383-.562-2.951-.224-4.388.18-7.222 2.031-13.922 5.551-20.56 9.044-2.425 1.276-4.875 2.57-6.942 4.369-5.785 5.034-8.21 14.381-4.93 21.313 6.122-2.306 13.353.188 19.731 1.648 8.252 1.888 17.033 1.402 25.026-1.389z" fill="#428dfc"/><path d="m263.224 76.507c-12.082 0-23.963-2.11-34.745-6.268-.451-.174-.674-.68-.5-1.129.173-.451.68-.673 1.128-.5 16.937 6.532 36.652 7.915 55.514 3.897.468-.102.934.2 1.037.672.1.473-.2.935-.673 1.036-7.195 1.533-14.514 2.292-21.761 2.292z" fill="#e94a47"/><path d="m245.744 77.084c-6.635 0-12.803-.977-18.485-2.935-.455-.157-.698-.654-.541-1.11.157-.457.653-.698 1.11-.542 15.331 5.283 34.423 3.19 56.738-6.22.443-.187.957.02 1.145.465.187.444-.021.957-.465 1.144-14.529 6.128-27.744 9.198-39.502 9.198z" fill="#e94a47"/><path d="m265.117 45.506c-3.648-8.878.117-21.758 6.784-28.663 6.667-6.906 16.387-10.28 25.973-10.788 3.017-.16 6.164-.032 8.858 1.334 2.694 1.367 4.812 4.255 4.443 7.254-3.649-1.864-8.289-.754-11.473 1.827-3.183 2.579-5.139 6.369-6.597 10.197-1.165 3.06-2.112 6.294-4.171 8.842-2.302 2.846-5.728 4.505-9.071 5.994-4.32 1.925-8.971 6.046-13.142 3.817-.446 7.381-1.134 1.6-1.604.186z" fill="#428dfc"/><path d="m264.961 44.458c-.208 0-.393-.151-.429-.364-1.279-7.457-1.372-15.035-.28-22.526 1.041-7.142 3.037-12.211 6.28-15.953 4.209-4.855 10.728-6.848 15.853-4.844.225.088.336.341.248.566s-.342.335-.565.248c-4.788-1.872-10.903.021-14.875 4.603-3.129 3.609-5.06 8.536-6.076 15.506-1.079 7.4-.986 14.887.277 22.252.04.237-.12.463-.357.504-.026.006-.052.008-.076.008z" fill="#428dfc"/><path d="m247.151 108.283c-1.924 0-4.034-.631-5.943-1.775-4.351-2.611-6.367-6.978-4.589-9.942.917-1.528 2.737-2.403 4.992-2.403 1.923 0 4.034.631 5.942 1.775 4.352 2.611 6.367 6.978 4.589 9.942-.917 1.527-2.737 2.403-4.991 2.403zm-5.541-12.375c-1.627 0-2.901.567-3.495 1.556-1.232 2.054.596 5.51 3.99 7.546 1.64.984 3.431 1.526 5.044 1.526 1.627 0 2.9-.567 3.494-1.556 1.232-2.054-.596-5.51-3.99-7.546-1.64-.983-3.431-1.526-5.043-1.526z" fill="#23286b"/><path d="m260.255 41.579h10.102v10.1h-10.102z" fill="#e94a47"/><path d="m304.751 302.098h94.526v22.367h-94.526z" fill="#d62929"/><path d="m285.991 324.465h94.526v22.367h-94.526z" fill="#428dfc"/><path d="m311.246 306.787h88.754v12.987h-88.754z" fill="#d6d7d8"/><path d="m313.41 329.846h33.193v10.822h-33.193z" fill="#eee"/><path d="m173.906 164.321 37.416-16.202s83.902 28.515 83.335 30.459c-.566 1.944-22.109 22.683-24.377 23.978s-96.374-38.235-96.374-38.235z" fill="url(#h)"/><g fill="#23286b"><path d="m195.236 167.924c-.159 0-.312-.087-.389-.237-.109-.215-.024-.477.191-.587l21.897-11.18c.215-.108.477-.024.587.191s.024.477-.191.587l-21.897 11.18c-.063.031-.131.046-.198.046z"/><path d="m204.59 173.027c-.153 0-.301-.081-.382-.223-.118-.21-.042-.477.168-.595l21.684-12.152c.209-.117.476-.043.595.166.118.21.042.477-.168.595l-21.684 12.152c-.067.039-.141.057-.213.057z"/><path d="m220.959 181.289c-.144 0-.284-.072-.369-.201-.129-.204-.069-.473.134-.602l24.447-15.553c.201-.126.472-.07.602.134.129.204.069.473-.134.602l-24.447 15.553c-.072.046-.153.067-.233.067z"/><path d="m261.35 191.741c-.134 0-.267-.061-.352-.178-.142-.195-.101-.468.093-.611l19.557-14.338c.193-.143.468-.102.611.093.142.195.101.468-.093.611l-19.557 14.338c-.077.057-.168.085-.259.085z"/><path d="m246.256 184.693c-.144 0-.284-.072-.369-.201-.129-.202-.07-.473.134-.602l20.197-12.879c.2-.129.473-.071.602.133s.07.473-.134.602l-20.197 12.88c-.071.044-.151.067-.233.067z"/></g><path d="m255.324 159.062c-2.522.549-9.199 2.525-11.802 3.897-2.387 1.258-5.883 3.512-6.056 6.204-.231 3.582 5.827.191 9.102-1.027 6.32-2.349 13.677-3.227 23.503-1.585 2.221.371 5.21-1.015 3.895-1.795-1.316-.78-2.225-1.905-4.75-3.168-2.978-1.488-10.539-3.256-13.892-2.526z" fill="#ffbeb6"/><path d="m285.588 201.882c-7.905 0-34.373-5.415-48.51-11.856-3.849-1.754-13.049-12.791-14.993-13.836-6.254-3.361-17.617-7.597-18.065-6.643-4.311 7.185 7.715 5.129 12.936 11.856-9.657-3.43-17.287-6.893-26.944-10.323 1.143 9.211 7.867 6.656 11.133 11.4.643.933 5.553 16.394 6.549 16.933 1.244.672 2.75.525 4.157.385 7.66-.76 15.398-.716 23.049.12 4.929.539 35.093 16.58 39.907 17.773.211-3.026 9.721-12.965 10.781-15.809z" fill="url(#i)"/><path d="m320.144 110.578c-2.459-6.117-11.089-11.884-17.5-10.349-6.969 1.668-7.708 10.337-7.637 17.503.121 12.226 1.141 28.265 1.774 37.185.934 13.185-1.843 26.189-4.32 39.173-.443 2.394-1.287 4.407-2.379 6.121-18.018.991-36.293-2.718-52.445-10.776-3.591 5.774-5.697 12.462-6.063 19.251-.074 1.373-.049 2.852.737 3.981.89 1.278 2.511 1.778 4.013 2.187 23.504 6.389 44.031 10.969 68.311 12.896.735.066 1.373-.301 1.927-.974.445-.244.796-.581 1.032-1.032 5.38-10.304 8.884-25.033 11.26-37.876 2.605-14.089 3.678-26.987 5.475-41.203 1.479-11.716.269-25.005-4.185-36.087z" fill="#a1c3fc"/><path d="m311.246 316.609h88.754v1.637h-88.754z" fill="#eee"/><path d="m311.246 313.335h88.754v1.637h-88.754z" fill="#eee"/><path d="m311.246 310.061h88.754v1.637h-88.754z" fill="#eee"/><path d="m311.246 306.787h88.754v1.637h-88.754z" fill="#eee"/><circle cx="362.216" cy="335.679" fill="#23286b" r="6.22"/><path d="m300.169 122.209c.117-.108.121-.221.013-.338s-.221-.121-.338-.013-.121.221-.013.338c.108.117.225.008.338.013zm7.381-22.726c.112.004.23-.104.234-.216.004-.112-.104-.23-.216-.233-.112-.004-.23.104-.234.216-.121.22.099.341.216.233zm-4.474 11.221c.112.004.225.008.342-.101.004-.112.008-.225-.101-.342-.112-.004-.225-.008-.342.101-.12.221-.012.337.101.342zm24.555 18.948c.221.121.451.017.572-.205.121-.221.017-.451-.205-.571-.221-.121-.451-.017-.572.205-.233.217-.02.563.205.571zm-10.001-3.978c.221.121.451.017.572-.205.121-.221.017-.451-.205-.571-.221-.121-.451-.017-.572.205-.119.22-.015.449.205.571zm-9.995-4.091c.221.121.451.017.572-.205.121-.221.017-.451-.205-.571-.221-.121-.451-.017-.572.205-.122.221-.018.45.205.571zm3.611 24.261c.121-.221.129-.446.025-.675-.221-.121-.446-.129-.675-.025-.121.221-.129.446-.021.563.211.346.437.354.671.137zm-7.728-7.502c.121-.221.129-.446.025-.675-.221-.121-.446-.129-.675-.025-.121.221-.129.446-.021.563.217.233.554.246.671.137zm23.226-30.369c.225.008.458-.209.468-.434.008-.225-.209-.458-.434-.468-.225-.008-.458.209-.468.434-.01.226.208.459.434.468zm-10.828.049c.225.008.458-.209.468-.434.008-.225-.209-.458-.434-.468-.225-.008-.458.209-.468.434-.007.227.21.46.434.468zm-10.714.054c.225.008.458-.209.468-.434.008-.225-.209-.458-.434-.468-.225-.008-.458.209-.468.434-.012.339.21.46.434.468zm-1.555 45.041c.117-.108.242-.442.021-.563-.108-.117-.442-.242-.563-.021-.117.108-.242.442-.021.563.104.23.33.237.563.021zm18.35-35.737c.225.008.455-.096.462-.321.008-.225-.101-.342-.321-.462-.225-.008-.455.096-.462.321-.008.224.096.453.321.462zm-9.554-.805c.225.008.455-.096.462-.321.008-.225-.101-.342-.321-.462-.225-.008-.455.096-.462.321-.01.224.095.453.321.462zm-9.551-.917c.225.008.455-.096.462-.321.008-.225-.101-.342-.321-.462-.225-.008-.455.096-.462.321-.012.337.096.453.321.462zm8.621 19.937c.221.121.451.017.572-.205.121-.221.017-.451-.205-.571-.221-.121-.451-.017-.572.205-.121.221-.02.562.205.571zm-8.52-4.375c.221.121.451.017.567-.091.121-.221.017-.451-.205-.571-.221-.121-.451-.017-.572.205-.116.106-.012.336.21.457zm12.352-32.125c.23-.104.346-.213.242-.442-.104-.23-.326-.35-.442-.242-.23.104-.35.325-.246.554-0 0 .221.121.446.13zm-9.125 2.819c.23-.104.35-.325.246-.554-.104-.23-.326-.35-.555-.246-.23.104-.35.325-.242.442.101.341.322.462.551.358-.112-.005 0 0 0 0zm6.998 54.601c.221.121.451.017.572-.205.121-.221.017-.451-.205-.571-.221-.121-.451-.017-.572.205-.12.221-.015.45.205.571zm-9.851-4.987c.221.121.451.017.572-.205.121-.221.017-.451-.205-.571-.221-.121-.451-.017-.572.205-.115.109-.015.45.205.571zm13.943-41.538c.23-.104.35-.325.246-.554-.104-.23-.326-.35-.555-.246-.23.104-.35.325-.246.554-.008.226.325.351.555.246zm-10.615 3.441c.23-.104.35-.325.246-.554-.104-.23-.326-.35-.555-.246-.23.104-.35.325-.246.554.109.117.326.35.555.246zm7.92 20.587c.225.008.458-.209.468-.434.008-.225-.209-.458-.434-.468-.225-.008-.458.209-.468.434-.007.226.209.461.434.468zm-11.018-.859c.225.008.458-.209.468-.434.008-.225-.209-.458-.434-.468-.225-.008-.458.209-.468.434-.008.226.096.456.434.468zm12.319 8.349c.225.008.458-.209.468-.434.008-.225-.209-.458-.434-.468s-.455.096-.468.434c-.007.226.209.46.434.468zm-11.002-1.31c.225.008.458-.209.468-.434.008-.225-.096-.455-.434-.468-.225-.008-.458.209-.58.429.105.231.321.464.546.473zm3.809-20.604c.23-.104.35-.325.358-.55-.104-.23-.324-.35-.55-.358-.23.104-.35.325-.358.55-.009.225.324.35.55.358z" fill="#fff"/><path d="m291.525 83.386c1.67 5.281-4.048 21.986-4.171 22.585-.118.577 8.006 18.849 8.006 18.849s3.276-10.51 4.298-15.816c1.238-6.425 3.465-13.942.866-19.947-.169-.388-8.039-4.957-8.999-5.671z" fill="#428dfc"/></svg>